<?xml version="1.0" standalone="no"?><!DOCTYPE svg PUBLIC "-//W3C//DTD SVG 1.1//EN" "http://www.w3.org/Graphics/SVG/1.1/DTD/svg11.dtd"><svg xmlns="http://www.w3.org/2000/svg" version="1.1" width="712.413" height="714.833" xmlns:xlink="http://www.w3.org/1999/xlink" xlink="http://www.w3.org/1999/xlink" style="position:relative;overflow:hidden;" viewBox="21.29 7.167 712.413 714.833"><defs><filter id="86fe933f-7f86-4212-8c3f-10704ea2010f" x="-0.5" y="-0.25" width="2" height="1.5"><feFlood flood-color="#000" flood-opacity="0.6" result="flood"/><feComposite in="flood" in2="SourceAlpha" operator="in" result="mask"/><feGaussianBlur in="mask" stdDeviation="2"/><feOffset dx="1.25" dy="1.25" result="oEffect0"/><feMerge><feMergeNode in="oEffect0"/><feMergeNode in="SourceGraphic"/></feMerge></filter><filter id="0beb76bd-3659-4057-8f07-c968ff2cbeb9" x="-0.5" y="-0.5" width="2" height="2"><feFlood flood-color="#000" flood-opacity="0.6" result="flood"/><feComposite in="flood" in2="SourceAlpha" operator="in" result="mask"/><feGaussianBlur in="mask" stdDeviation="2"/><feOffset dx="1.25" dy="1.25" result="oEffect0"/><feMerge><feMergeNode in="oEffect0"/><feMergeNode in="SourceGraphic"/></feMerge></filter><filter id="c296728b-66c8-4e48-851d-c388bf09c699" x="-0.5" y="-0.5" width="2" height="2"><feFlood flood-color="#000" flood-opacity="0.6" result="flood"/><feComposite in="flood" in2="SourceAlpha" operator="in" result="mask"/><feGaussianBlur in="mask" stdDeviation="2"/><feOffset dx="1.2125000000000001" dy="1.2125000000000001" result="oEffect0"/><feMerge><feMergeNode in="oEffect0"/><feMergeNode in="SourceGraphic"/></feMerge></filter></defs><g><g width="391.5" height="624.833" transform="scale(1,1) translate(172.5,91.667)"><g stroke="#7F7F7F" opacity="1" stroke-width="1" stroke-dasharray="none" width="391.5" height="624.833" transform="scale(1,1) translate(0,0)" fill="url(#e3473f8b-21e1-416d-8ef2-8a4c296f741c)" stroke-opacity="1" filter="url(#86fe933f-7f86-4212-8c3f-10704ea2010f)"><linearGradient id="e3473f8b-21e1-416d-8ef2-8a4c296f741c" x1="195.75" y1="0" x2="195.75" y2="624.833" gradientUnits="userSpaceOnUse"><stop offset="0%" style="stop-color:#C4D5E6;stop-opacity:1;"/><stop offset="100%" style="stop-color:#B6CDE4;stop-opacity:1;"/></linearGradient><rect width="391.5" height="624.833"/></g><g width="390.5" height="623.8333333333333" transform="scale(1,1) translate(0.5,0.5)"><text width="390.5" height="15.624999046325684" transform="scale(1,1) translate(0,608.2083342870076)" xml:space="preserve"><tspan xml:space="preserve" text-rendering="optimizeSpeed" font-size="13.88888888888889" font-weight="bold" font-style="normal" fill="#333333" opacity="1" x="326.422" text-anchor="start" y="12.5" textLength="64.07756805419922" style="font-family: Arial, Helvetica Neue, Helvetica, sans-serif;">Release 2</tspan></text></g></g><g width="351.333" height="491.5" transform="scale(1,1) translate(189.5,108.333)"><g stroke="#7F7F7F" opacity="1" stroke-width="1" stroke-dasharray="none" width="351.333" height="491.5" transform="scale(1,1) translate(0,0)" fill="url(#856b97a6-1985-4999-856f-6ac0056ee2ff)" stroke-opacity="1" filter="url(#0beb76bd-3659-4057-8f07-c968ff2cbeb9)"><linearGradient id="856b97a6-1985-4999-856f-6ac0056ee2ff" x1="175.6665" y1="0" x2="175.6665" y2="491.5" gradientUnits="userSpaceOnUse"><stop offset="0%" style="stop-color:#C4D5E6;stop-opacity:1;"/><stop offset="100%" style="stop-color:#B6CDE4;stop-opacity:1;"/></linearGradient><rect width="351.333" height="491.5"/></g><g width="350.3333333333333" height="490.5" transform="scale(1,1) translate(0.5,0.5)"><text width="350.3333333333333" height="15.624999046325684" transform="scale(1,1) translate(0,474.8750009536743)" xml:space="preserve"><tspan xml:space="preserve" text-rendering="optimizeSpeed" font-size="13.88888888888889" font-weight="bold" font-style="normal" fill="#333333" opacity="1" x="286.256" text-anchor="start" y="12.5" textLength="64.07756805419922" style="font-family: Arial, Helvetica Neue, Helvetica, sans-serif;">Release 1</tspan></text></g></g><g width="48.5" height="0" transform="scale(1,1) translate(63.79,339.761)"><g fill="#545454" stroke="#545454" stroke-opacity="1" transform="scale(1,1) translate(0,0)"><path fill="none" stroke-width="1" stroke-dasharray="none" d="M0,0 L0,0 M0,0 L0,0 M48.5,0 L48.5,0 M0,0 L0,0"/><g><g stroke-dasharray="none"><path d="M0,0L-10,0L-10,-10L0,-10z" stroke-width="0" fill="none"/></g></g></g></g><g width="47.5" height="95.167" transform="scale(1,1) translate(63.79,292.261)"><g width="47.5" height="95.167" fill="url(#53ab4a69-d16e-4d8c-842c-28edeb3e07c5)" filter="url(#c296728b-66c8-4e48-851d-c388bf09c699)"><linearGradient id="53ab4a69-d16e-4d8c-842c-28edeb3e07c5" x1="23.75" y1="0" x2="23.75" y2="95.167" gradientUnits="userSpaceOnUse"><stop offset="0%" style="stop-color:#92B0CF;stop-opacity:1;"/><stop offset="100%" style="stop-color:#8CA8CD;stop-opacity:1;"/></linearGradient><g transform="scale(0.979664308817572,0.9895979353185028) translate(0,0)"><g><g width="0" height="42.167" transform="scale(1,1) translate(23.333,23.667)"><g transform="scale(1,1) translate(0,0)" fill="#7F7F7F" stroke="#7F7F7F" stroke-opacity="1"><path d="M0,0 L0,42.167" fill="none" stroke-width="1" stroke-dasharray="none"/><g><g stroke-dasharray="none"><path d="M-2,-2L2,-2L2,2L-2,2z" stroke-width="0" fill="none"/></g></g></g></g><g width="23.167" height="23" transform="scale(1,1) translate(11.5,1)"><g width="23.167" height="23" transform="scale(1,1) translate(0,0)" stroke="#7F7F7F" stroke-width="1" stroke-dasharray="none" fill="none" stroke-opacity="1"><ellipse rx="11.5835" ry="11.5" cx="11.5835" cy="11.5"/></g></g><g width="22.333" height="11.833" transform="scale(1,1) translate(1,35.5)"><g transform="scale(1,1) translate(0,0)" fill="#7F7F7F" stroke="#7F7F7F" stroke-opacity="1"><path d="M0,11.833 L22.333,0" fill="none" stroke-width="1" stroke-dasharray="none"/><g><g stroke-dasharray="none"><path d="M-2,9.833L2,9.833L2,13.833L-2,13.833z" stroke-width="0" fill="none"/></g></g></g></g><g width="22.333" height="13.5" transform="scale(1,1) translate(23.153,35.682)"><g transform="scale(1,1) translate(0,0)" fill="#7F7F7F" stroke="#7F7F7F" stroke-opacity="1"><path d="M0,0 L22.333,13.5" fill="none" stroke-width="1" stroke-dasharray="none"/><g><g stroke-dasharray="none"><path d="M-2,-2L2,-2L2,2L-2,2z" stroke-width="0" fill="none"/></g></g></g></g><g width="19.167" height="28.167" transform="scale(1,1) translate(4.167,65)"><g transform="scale(1,1) translate(0,0)" fill="#7F7F7F" stroke="#7F7F7F" stroke-opacity="1"><path d="M0,28.167 L19.167,0" fill="none" stroke-width="1" stroke-dasharray="none"/><g><g stroke-dasharray="none"><path d="M-2,26.167L2,26.167L2,30.167L-2,30.167z" stroke-width="0" fill="none"/></g></g></g></g><g width="16.333" height="26.833" transform="scale(1,1) translate(23.152,65.167)"><g transform="scale(1,1) translate(0,0)" fill="#7F7F7F" stroke="#7F7F7F" stroke-opacity="1"><path d="M0,0 L16.333,26.833" fill="none" stroke-width="1" stroke-dasharray="none"/><g><g stroke-dasharray="none"><path d="M-2,-2L2,-2L2,2L-2,2z" stroke-width="0" fill="none"/></g></g></g></g></g></g></g><g width="94.68917846679688" height="31.249998092651367" transform="scale(1,1) translate(-23.595,95.167)"><text width="94.68917846679688" height="31.249998092651367" transform="scale(1,1) translate(0,0)" xml:space="preserve"><tspan xml:space="preserve" text-rendering="optimizeSpeed" font-size="13.88888888888889" font-weight="normal" font-style="normal" fill="#333333" opacity="1" x="0" text-anchor="start" y="12.5" textLength="94.68917846679688" style="font-family: Arial, Helvetica Neue, Helvetica, sans-serif;">&lt;&lt;REST API&gt;&gt;</tspan><tspan xml:space="preserve" text-rendering="optimizeSpeed" font-size="13.88888888888889" font-weight="normal" font-style="normal" fill="#333333" opacity="1" x="29.595" text-anchor="start" y="28.125" textLength="35.49995040893555" style="font-family: Arial, Helvetica Neue, Helvetica, sans-serif;">Client</tspan></text></g></g><g width="353.992" height="25" transform="scale(1,1) translate(137.167,19.167)"><g stroke="#000000" opacity="1" stroke-width="0" stroke-dasharray="none" width="353.992" height="25" transform="scale(1,1) translate(0,0)" fill="none" stroke-opacity="1"><rect width="353.992" height="25"/></g><g width="353.9916076660156" height="24.999998092651367" transform="scale(1,1) translate(0,0)"><text width="353.9916076660156" height="24.999998092651367" transform="scale(1,1) translate(0,0)" xml:space="preserve"><tspan xml:space="preserve" text-rendering="optimizeSpeed" font-size="22.22222222222222" font-weight="bold" font-style="normal" fill="#333333" opacity="1" x="0" text-anchor="start" y="19.792" textLength="353.9916076660156" style="font-family: Arial, Helvetica Neue, Helvetica, sans-serif;">Use Case Diagram: Assign Active</tspan></text></g></g><g width="164.726" height="56.046" transform="scale(1,1) translate(263.598,208.645)"><g width="164.726" height="56.046" transform="scale(1,1) translate(0,0)" stroke="#7F7F7F" stroke-width="1" stroke-dasharray="none" fill="#CDC29C" fill-opacity="1" stroke-opacity="1" filter="url(#0beb76bd-3659-4057-8f07-c968ff2cbeb9)"><ellipse rx="82.363" ry="28.023" cx="82.363" cy="28.023"/></g><g width="111.7717269860178" height="34.92336084886351" transform="scale(1,1) translate(26.477,10.561)"><text width="111.7717269860178" height="31.249998092651367" transform="scale(1,1) translate(0,1.8366813781060713)" xml:space="preserve"><tspan xml:space="preserve" text-rendering="optimizeSpeed" font-size="13.88888888888889" font-weight="normal" font-style="normal" fill="#333333" opacity="1" x="0.053" text-anchor="start" y="12.5" textLength="111.66622161865234" style="font-family: Arial, Helvetica Neue, Helvetica, sans-serif;">&lt;AssignValidator&gt;</tspan><tspan xml:space="preserve" text-rendering="optimizeSpeed" font-size="13.88888888888889" font-weight="normal" font-style="normal" fill="#333333" opacity="1" x="31.956" text-anchor="start" y="28.125" textLength="47.85984420776367" style="font-family: Arial, Helvetica Neue, Helvetica, sans-serif;">validate</tspan></text></g></g><g width="47.5" height="95.167" transform="scale(1,1) translate(651.741,300.277)"><g width="47.5" height="95.167" fill="url(#802c51b3-1bc2-43b9-8f09-b592a7dfd4b0)" filter="url(#c296728b-66c8-4e48-851d-c388bf09c699)"><linearGradient id="802c51b3-1bc2-43b9-8f09-b592a7dfd4b0" x1="23.75" y1="0" x2="23.75" y2="95.167" gradientUnits="userSpaceOnUse"><stop offset="0%" style="stop-color:#92B0CF;stop-opacity:1;"/><stop offset="100%" style="stop-color:#8CA8CD;stop-opacity:1;"/></linearGradient><g transform="scale(0.979664308817572,0.9895979353185028) translate(0,0)"><g><g width="0" height="42.167" transform="scale(1,1) translate(23.333,23.667)"><g transform="scale(1,1) translate(0,0)" fill="#7F7F7F" stroke="#7F7F7F" stroke-opacity="1"><path d="M0,0 L0,42.167" fill="none" stroke-width="1" stroke-dasharray="none"/><g><g stroke-dasharray="none"><path d="M-2,-2L2,-2L2,2L-2,2z" stroke-width="0" fill="none"/></g></g></g></g><g width="23.167" height="23" transform="scale(1,1) translate(11.5,1)"><g width="23.167" height="23" transform="scale(1,1) translate(0,0)" stroke="#7F7F7F" stroke-width="1" stroke-dasharray="none" fill="none" stroke-opacity="1"><ellipse rx="11.5835" ry="11.5" cx="11.5835" cy="11.5"/></g></g><g width="22.333" height="11.833" transform="scale(1,1) translate(1,35.5)"><g transform="scale(1,1) translate(0,0)" fill="#7F7F7F" stroke="#7F7F7F" stroke-opacity="1"><path d="M0,11.833 L22.333,0" fill="none" stroke-width="1" stroke-dasharray="none"/><g><g stroke-dasharray="none"><path d="M-2,9.833L2,9.833L2,13.833L-2,13.833z" stroke-width="0" fill="none"/></g></g></g></g><g width="22.333" height="13.5" transform="scale(1,1) translate(23.153,35.682)"><g transform="scale(1,1) translate(0,0)" fill="#7F7F7F" stroke="#7F7F7F" stroke-opacity="1"><path d="M0,0 L22.333,13.5" fill="none" stroke-width="1" stroke-dasharray="none"/><g><g stroke-dasharray="none"><path d="M-2,-2L2,-2L2,2L-2,2z" stroke-width="0" fill="none"/></g></g></g></g><g width="19.167" height="28.167" transform="scale(1,1) translate(4.167,65)"><g transform="scale(1,1) translate(0,0)" fill="#7F7F7F" stroke="#7F7F7F" stroke-opacity="1"><path d="M0,28.167 L19.167,0" fill="none" stroke-width="1" stroke-dasharray="none"/><g><g stroke-dasharray="none"><path d="M-2,26.167L2,26.167L2,30.167L-2,30.167z" stroke-width="0" fill="none"/></g></g></g></g><g width="16.333" height="26.833" transform="scale(1,1) translate(23.152,65.167)"><g transform="scale(1,1) translate(0,0)" fill="#7F7F7F" stroke="#7F7F7F" stroke-opacity="1"><path d="M0,0 L16.333,26.833" fill="none" stroke-width="1" stroke-dasharray="none"/><g><g stroke-dasharray="none"><path d="M-2,-2L2,-2L2,2L-2,2z" stroke-width="0" fill="none"/></g></g></g></g></g></g></g><g width="104.98117065429688" height="31.249998092651367" transform="scale(1,1) translate(-28.741,95.167)"><text width="104.98117065429688" height="31.249998092651367" transform="scale(1,1) translate(0,0)" xml:space="preserve"><tspan xml:space="preserve" text-rendering="optimizeSpeed" font-size="13.88888888888889" font-weight="normal" font-style="normal" fill="#333333" opacity="1" x="0" text-anchor="start" y="12.5" textLength="104.98117065429688" style="font-family: Arial, Helvetica Neue, Helvetica, sans-serif;">&lt;&lt;Persistence&gt;&gt;</tspan><tspan xml:space="preserve" text-rendering="optimizeSpeed" font-size="13.88888888888889" font-weight="normal" font-style="normal" fill="#333333" opacity="1" x="21.618" text-anchor="start" y="28.125" textLength="61.74527359008789" style="font-family: Arial, Helvetica Neue, Helvetica, sans-serif;">MongoDB</tspan></text></g></g><g width="163.006" height="56.437" transform="scale(1,1) translate(264.065,119.644)"><g width="163.006" height="56.437" transform="scale(1,1) translate(0,0)" stroke="#7F7F7F" stroke-width="1" stroke-dasharray="none" fill="#CDC29C" fill-opacity="1" stroke-opacity="1" filter="url(#0beb76bd-3659-4057-8f07-c968ff2cbeb9)"><ellipse rx="81.503" ry="28.2185" cx="81.503" cy="28.2185"/></g><g width="110.55529208909203" height="35.19967222250565" transform="scale(1,1) translate(26.225,10.619)"><text width="110.55529208909203" height="31.249998092651367" transform="scale(1,1) translate(0,1.97483706492714)" xml:space="preserve"><tspan xml:space="preserve" text-rendering="optimizeSpeed" font-size="13.88888888888889" font-weight="normal" font-style="normal" fill="#333333" opacity="1" x="29.422" text-anchor="start" y="12.5" textLength="51.71088790893555" style="font-family: Arial, Helvetica Neue, Helvetica, sans-serif;">Rest Api</tspan><tspan xml:space="preserve" text-rendering="optimizeSpeed" font-size="13.88888888888889" font-weight="normal" font-style="normal" fill="#333333" opacity="1" x="4.723" text-anchor="start" y="28.125" textLength="101.10980224609375" style="font-family: Arial, Helvetica Neue, Helvetica, sans-serif;">&lt;/assign-active&gt;</tspan></text></g></g><g width="0.393" height="32.564" transform="scale(1,1) translate(345.568,176.08)"><g transform="scale(1,1) translate(0,0)" fill="#000000" stroke="#000000" stroke-opacity="1"><path d="M 0.072 6 L 0.393 32.564" fill="none" stroke-width="2" stroke-dasharray="none"/><g><g stroke-dasharray="none"><path d="M-0.428,6.006A6,6 269.309 1 1 0.572,5.994z" stroke-width="1" fill="none"/></g><g stroke-dasharray="none"><path d="M6.248,20.492L0.393,32.564L-5.751,20.637" stroke-width="1" fill="none"/></g></g></g></g><g width="221.141" height="185.359" transform="scale(1,1) translate(430.601,347.861)"><g transform="scale(1,1) translate(0,0)" fill="#000000" stroke="#000000" stroke-opacity="1"><path d="M 4.598 181.505 L 221.141 0" fill="none" stroke-width="2" stroke-dasharray="none"/><g><g stroke-dasharray="none"><path d="M4.92,181.888A6,6 140.03 1 1 4.277,181.122z" stroke-width="1" fill="none"/></g><g stroke-dasharray="none"><path d="M208.09,3.11L221.141,0L215.799,12.307" stroke-width="1" fill="none"/></g></g></g></g><g width="166.78" height="57.826" transform="scale(1,1) translate(263.221,298.704)"><g width="166.78" height="57.826" transform="scale(1,1) translate(0,0)" stroke="#7F7F7F" stroke-width="1" stroke-dasharray="none" fill="#CDC29C" fill-opacity="1" stroke-opacity="1" filter="url(#0beb76bd-3659-4057-8f07-c968ff2cbeb9)"><ellipse rx="83.39" ry="28.913" cx="83.39" cy="28.913"/></g><g width="113.22439812806046" height="36.18238367306861" transform="scale(1,1) translate(26.778,10.822)"><text width="113.22439812806046" height="15.624999046325684" transform="scale(1,1) translate(0,10.278692313371462)" xml:space="preserve"><tspan xml:space="preserve" text-rendering="optimizeSpeed" font-size="13.88888888888889" font-weight="normal" font-style="normal" fill="#333333" opacity="1" x="0.01" text-anchor="start" y="12.5" textLength="113.20526885986328" style="font-family: Arial, Helvetica Neue, Helvetica, sans-serif;">Validate Existence</tspan></text></g></g><g width="0.65" height="34.014" transform="scale(1,1) translate(345.961,264.691)"><g transform="scale(1,1) translate(0,0)" fill="#545454" stroke="#545454" stroke-opacity="1"><path d="M0,0 L0.65,34.014" fill="none" stroke-width="2" stroke-dasharray="6,2"/><g><g stroke-dasharray="none"><path d="M-2,-2L2,-2L2,2L-2,2z" stroke-width="0" fill="none"/></g></g></g><g stroke-width="0" stroke-dasharray="none" fill="#FFFFFF" opacity="1" width="78.437" height="17.625" transform="scale(1,1) translate(-38.894,8.194)"><rect width="78.437" height="17.625"/></g><g width="76.43745422363281" height="34.013691786767424" transform="scale(1,1) translate(-37.894,9.194)"><text width="76.43745422363281" height="15.624999046325684" transform="scale(1,1) translate(0,0)" xml:space="preserve"><tspan xml:space="preserve" text-rendering="optimizeSpeed" font-size="13.88888888888889" font-weight="normal" font-style="normal" fill="#000000" opacity="1" x="0" text-anchor="start" y="12.5" textLength="76.43745422363281" style="font-family: Arial, Helvetica Neue, Helvetica, sans-serif;">&lt;&lt;include&gt;&gt;</tspan></text></g></g><g width="157.48" height="53.343" transform="scale(1,1) translate(268.121,406.098)"><g width="157.48" height="53.343" transform="scale(1,1) translate(0,0)" stroke="#7F7F7F" stroke-width="1" stroke-dasharray="none" fill="#CDC29C" fill-opacity="1" stroke-opacity="1" filter="url(#0beb76bd-3659-4057-8f07-c968ff2cbeb9)"><ellipse rx="78.74" ry="26.6715" cx="78.74" cy="26.6715"/></g><g width="106.64829197621413" height="33.01221460412765" transform="scale(1,1) translate(25.416,10.165)"><text width="106.64829197621413" height="15.624999046325684" transform="scale(1,1) translate(0,8.693607778900983)" xml:space="preserve"><tspan xml:space="preserve" text-rendering="optimizeSpeed" font-size="13.88888888888889" font-weight="normal" font-style="normal" fill="#333333" opacity="1" x="7.139" text-anchor="start" y="12.5" textLength="92.3703842163086" style="font-family: Arial, Helvetica Neue, Helvetica, sans-serif;">Validate Status</tspan></text></g></g><g width="0.25" height="49.567" transform="scale(1,1) translate(346.611,356.531)"><g transform="scale(1,1) translate(0,0)" fill="#545454" stroke="#545454" stroke-opacity="1"><path d="M0,0 L0.25,49.567" fill="none" stroke-width="2" stroke-dasharray="6,2"/><g><g stroke-dasharray="none"><path d="M-2,-2L2,-2L2,2L-2,2z" stroke-width="0" fill="none"/></g></g></g><g stroke-width="0" stroke-dasharray="none" fill="#FFFFFF" opacity="1" width="78.437" height="17.625" transform="scale(1,1) translate(-39.094,15.971)"><rect width="78.437" height="17.625"/></g><g width="76.43745422363281" height="49.56704801404214" transform="scale(1,1) translate(-38.094,16.971)"><text width="76.43745422363281" height="15.624999046325684" transform="scale(1,1) translate(0,0)" xml:space="preserve"><tspan xml:space="preserve" text-rendering="optimizeSpeed" font-size="13.88888888888889" font-weight="normal" font-style="normal" fill="#000000" opacity="1" x="0" text-anchor="start" y="12.5" textLength="76.43745422363281" style="font-family: Arial, Helvetica Neue, Helvetica, sans-serif;">&lt;&lt;include&gt;&gt;</tspan></text></g></g><g width="152.775" height="191.982" transform="scale(1,1) translate(111.29,147.862)"><g transform="scale(1,1) translate(0,0)" fill="#000000" stroke="#000000" stroke-opacity="1"><path d="M 3.736 187.287 L 152.775 0" fill="none" stroke-width="2" stroke-dasharray="none"/><g><g stroke-dasharray="none"><path d="M4.127,187.598A6,6 128.512 1 1 3.345,186.976z" stroke-width="1" fill="none"/></g><g stroke-dasharray="none"><path d="M140.608,5.654L152.775,0L149.998,13.126" stroke-width="1" fill="none"/></g></g></g></g><g width="166.78" height="54.183" transform="scale(1,1) translate(263.821,506.128)"><g width="166.78" height="54.183" transform="scale(1,1) translate(0,0)" stroke="#7F7F7F" stroke-width="1" stroke-dasharray="none" fill="#CDC29C" fill-opacity="1" stroke-opacity="1" filter="url(#0beb76bd-3659-4057-8f07-c968ff2cbeb9)"><ellipse rx="83.39" ry="27.0915" cx="83.39" cy="27.0915"/></g><g width="113.22439835355368" height="33.60630000319286" transform="scale(1,1) translate(26.778,10.289)"><text width="113.22439835355368" height="15.624999046325684" transform="scale(1,1) translate(0,8.990650478433587)" xml:space="preserve"><tspan xml:space="preserve" text-rendering="optimizeSpeed" font-size="13.88888888888889" font-weight="normal" font-style="normal" fill="#333333" opacity="1" x="9.654" text-anchor="start" y="12.5" textLength="93.9162368774414" style="font-family: Arial, Helvetica Neue, Helvetica, sans-serif;">Validate Option</tspan></text></g></g><g width="0.35" height="46.687" transform="scale(1,1) translate(346.861,459.441)"><g transform="scale(1,1) translate(0,0)" fill="#545454" stroke="#545454" stroke-opacity="1"><path d="M0,0 L0.35,46.687" fill="none" stroke-width="2" stroke-dasharray="6,2"/><g><g stroke-dasharray="none"><path d="M-2,-2L2,-2L2,2L-2,2z" stroke-width="0" fill="none"/></g></g></g><g stroke-width="0" stroke-dasharray="none" fill="#FFFFFF" opacity="1" width="78.437" height="17.625" transform="scale(1,1) translate(-39.044,14.531)"><rect width="78.437" height="17.625"/></g><g width="76.43745422363281" height="46.68677030621461" transform="scale(1,1) translate(-38.044,15.531)"><text width="76.43745422363281" height="15.624999046325684" transform="scale(1,1) translate(0,0)" xml:space="preserve"><tspan xml:space="preserve" text-rendering="optimizeSpeed" font-size="13.88888888888889" font-weight="normal" font-style="normal" fill="#000000" opacity="1" x="0" text-anchor="start" y="12.5" textLength="76.43745422363281" style="font-family: Arial, Helvetica Neue, Helvetica, sans-serif;">&lt;&lt;include&gt;&gt;</tspan></text></g></g></g></svg>