<?xml version="1.0" standalone="no"?><!DOCTYPE svg PUBLIC "-//W3C//DTD SVG 1.1//EN" "http://www.w3.org/Graphics/SVG/1.1/DTD/svg11.dtd"><svg xmlns="http://www.w3.org/2000/svg" version="1.1" width="712.413" height="714.833" xmlns:xlink="http://www.w3.org/1999/xlink" xlink="http://www.w3.org/1999/xlink" style="position:relative;overflow:hidden;" viewBox="21.29 7.167 712.413 714.833"><defs><filter id="3eb5a121-8d96-4ce6-80a6-3d23bbc6ce75" x="-0.5" y="-0.25" width="2" height="1.5"><feFlood flood-color="#000" flood-opacity="0.6" result="flood"/><feComposite in="flood" in2="SourceAlpha" operator="in" result="mask"/><feGaussianBlur in="mask" stdDeviation="2"/><feOffset dx="1.25" dy="1.25" result="oEffect0"/><feMerge><feMergeNode in="oEffect0"/><feMergeNode in="SourceGraphic"/></feMerge></filter><filter id="fadeebc1-2f58-4cba-85d7-65698ed7f114" x="-0.5" y="-0.5" width="2" height="2"><feFlood flood-color="#000" flood-opacity="0.6" result="flood"/><feComposite in="flood" in2="SourceAlpha" operator="in" result="mask"/><feGaussianBlur in="mask" stdDeviation="2"/><feOffset dx="1.25" dy="1.25" result="oEffect0"/><feMerge><feMergeNode in="oEffect0"/><feMergeNode in="SourceGraphic"/></feMerge></filter><filter id="eb594337-15da-495a-80b0-b00885abc3c2" x="-0.5" y="-0.5" width="2" height="2"><feFlood flood-color="#000" flood-opacity="0.6" result="flood"/><feComposite in="flood" in2="SourceAlpha" operator="in" result="mask"/><feGaussianBlur in="mask" stdDeviation="2"/><feOffset dx="1.2125000000000001" dy="1.2125000000000001" result="oEffect0"/><feMerge><feMergeNode in="oEffect0"/><feMergeNode in="SourceGraphic"/></feMerge></filter></defs><g><g width="391.5" height="624.833" transform="scale(1,1) translate(172.5,91.667)"><g stroke="#7F7F7F" opacity="1" stroke-width="1" stroke-dasharray="none" width="391.5" height="624.833" transform="scale(1,1) translate(0,0)" fill="url(#a1d5994a-e556-48e6-87eb-c65fc0a3c82d)" stroke-opacity="1" filter="url(#3eb5a121-8d96-4ce6-80a6-3d23bbc6ce75)"><linearGradient id="a1d5994a-e556-48e6-87eb-c65fc0a3c82d" x1="195.75" y1="0" x2="195.75" y2="624.833" gradientUnits="userSpaceOnUse"><stop offset="0%" style="stop-color:#C4D5E6;stop-opacity:1;"/><stop offset="100%" style="stop-color:#B6CDE4;stop-opacity:1;"/></linearGradient><rect width="391.5" height="624.833"/></g><g width="390.5" height="623.8333333333333" transform="scale(1,1) translate(0.5,0.5)"><text width="390.5" height="15.624999046325684" transform="scale(1,1) translate(0,608.2083342870076)" xml:space="preserve"><tspan xml:space="preserve" text-rendering="optimizeSpeed" font-size="13.88888888888889" font-weight="bold" font-style="normal" fill="#333333" opacity="1" x="326.422" text-anchor="start" y="12.5" textLength="64.07756805419922" style="font-family: Arial, Helvetica Neue, Helvetica, sans-serif;">Release 2</tspan></text></g></g><g width="351.333" height="491.5" transform="scale(1,1) translate(189.5,108.333)"><g stroke="#7F7F7F" opacity="1" stroke-width="1" stroke-dasharray="none" width="351.333" height="491.5" transform="scale(1,1) translate(0,0)" fill="url(#0b35c8fa-e879-4b4c-83f1-55c8d17060e1)" stroke-opacity="1" filter="url(#fadeebc1-2f58-4cba-85d7-65698ed7f114)"><linearGradient id="0b35c8fa-e879-4b4c-83f1-55c8d17060e1" x1="175.6665" y1="0" x2="175.6665" y2="491.5" gradientUnits="userSpaceOnUse"><stop offset="0%" style="stop-color:#C4D5E6;stop-opacity:1;"/><stop offset="100%" style="stop-color:#B6CDE4;stop-opacity:1;"/></linearGradient><rect width="351.333" height="491.5"/></g><g width="350.3333333333333" height="490.5" transform="scale(1,1) translate(0.5,0.5)"><text width="350.3333333333333" height="15.624999046325684" transform="scale(1,1) translate(0,474.8750009536743)" xml:space="preserve"><tspan xml:space="preserve" text-rendering="optimizeSpeed" font-size="13.88888888888889" font-weight="bold" font-style="normal" fill="#333333" opacity="1" x="286.256" text-anchor="start" y="12.5" textLength="64.07756805419922" style="font-family: Arial, Helvetica Neue, Helvetica, sans-serif;">Release 1</tspan></text></g></g><g width="48.5" height="0" transform="scale(1,1) translate(63.79,339.761)"><g fill="#545454" stroke="#545454" stroke-opacity="1" transform="scale(1,1) translate(0,0)"><path fill="none" stroke-width="1" stroke-dasharray="none" d="M0,0 L0,0 M0,0 L0,0 M48.5,0 L48.5,0 M0,0 L0,0"/><g><g stroke-dasharray="none"><path d="M0,0L-10,0L-10,-10L0,-10z" stroke-width="0" fill="none"/></g></g></g></g><g width="47.5" height="95.167" transform="scale(1,1) translate(63.79,292.261)"><g width="47.5" height="95.167" fill="url(#a57d87c8-14a4-40d9-8da4-82bf038dbd8d)" filter="url(#eb594337-15da-495a-80b0-b00885abc3c2)"><linearGradient id="a57d87c8-14a4-40d9-8da4-82bf038dbd8d" x1="23.75" y1="0" x2="23.75" y2="95.167" gradientUnits="userSpaceOnUse"><stop offset="0%" style="stop-color:#92B0CF;stop-opacity:1;"/><stop offset="100%" style="stop-color:#8CA8CD;stop-opacity:1;"/></linearGradient><g transform="scale(0.979664308817572,0.9895979353185028) translate(0,0)"><g><g width="0" height="42.167" transform="scale(1,1) translate(23.333,23.667)"><g transform="scale(1,1) translate(0,0)" fill="#7F7F7F" stroke="#7F7F7F" stroke-opacity="1"><path d="M0,0 L0,42.167" fill="none" stroke-width="1" stroke-dasharray="none"/><g><g stroke-dasharray="none"><path d="M-2,-2L2,-2L2,2L-2,2z" stroke-width="0" fill="none"/></g></g></g></g><g width="23.167" height="23" transform="scale(1,1) translate(11.5,1)"><g width="23.167" height="23" transform="scale(1,1) translate(0,0)" stroke="#7F7F7F" stroke-width="1" stroke-dasharray="none" fill="none" stroke-opacity="1"><ellipse rx="11.5835" ry="11.5" cx="11.5835" cy="11.5"/></g></g><g width="22.333" height="11.833" transform="scale(1,1) translate(1,35.5)"><g transform="scale(1,1) translate(0,0)" fill="#7F7F7F" stroke="#7F7F7F" stroke-opacity="1"><path d="M0,11.833 L22.333,0" fill="none" stroke-width="1" stroke-dasharray="none"/><g><g stroke-dasharray="none"><path d="M-2,9.833L2,9.833L2,13.833L-2,13.833z" stroke-width="0" fill="none"/></g></g></g></g><g width="22.333" height="13.5" transform="scale(1,1) translate(23.153,35.682)"><g transform="scale(1,1) translate(0,0)" fill="#7F7F7F" stroke="#7F7F7F" stroke-opacity="1"><path d="M0,0 L22.333,13.5" fill="none" stroke-width="1" stroke-dasharray="none"/><g><g stroke-dasharray="none"><path d="M-2,-2L2,-2L2,2L-2,2z" stroke-width="0" fill="none"/></g></g></g></g><g width="19.167" height="28.167" transform="scale(1,1) translate(4.167,65)"><g transform="scale(1,1) translate(0,0)" fill="#7F7F7F" stroke="#7F7F7F" stroke-opacity="1"><path d="M0,28.167 L19.167,0" fill="none" stroke-width="1" stroke-dasharray="none"/><g><g stroke-dasharray="none"><path d="M-2,26.167L2,26.167L2,30.167L-2,30.167z" stroke-width="0" fill="none"/></g></g></g></g><g width="16.333" height="26.833" transform="scale(1,1) translate(23.152,65.167)"><g transform="scale(1,1) translate(0,0)" fill="#7F7F7F" stroke="#7F7F7F" stroke-opacity="1"><path d="M0,0 L16.333,26.833" fill="none" stroke-width="1" stroke-dasharray="none"/><g><g stroke-dasharray="none"><path d="M-2,-2L2,-2L2,2L-2,2z" stroke-width="0" fill="none"/></g></g></g></g></g></g></g><g width="94.68917846679688" height="31.249998092651367" transform="scale(1,1) translate(-23.595,95.167)"><text width="94.68917846679688" height="31.249998092651367" transform="scale(1,1) translate(0,0)" xml:space="preserve"><tspan xml:space="preserve" text-rendering="optimizeSpeed" font-size="13.88888888888889" font-weight="normal" font-style="normal" fill="#333333" opacity="1" x="0" text-anchor="start" y="12.5" textLength="94.68917846679688" style="font-family: Arial, Helvetica Neue, Helvetica, sans-serif;">&lt;&lt;REST API&gt;&gt;</tspan><tspan xml:space="preserve" text-rendering="optimizeSpeed" font-size="13.88888888888889" font-weight="normal" font-style="normal" fill="#333333" opacity="1" x="29.595" text-anchor="start" y="28.125" textLength="35.49995040893555" style="font-family: Arial, Helvetica Neue, Helvetica, sans-serif;">Client</tspan></text></g></g><g width="152.236" height="57.97" transform="scale(1,1) translate(270.943,330.461)"><g width="152.236" height="57.97" transform="scale(1,1) translate(0,0)" stroke="#7F7F7F" stroke-width="1" stroke-dasharray="none" fill="#CDC29C" fill-opacity="1" stroke-opacity="1" filter="url(#fadeebc1-2f58-4cba-85d7-65698ed7f114)"><ellipse rx="76.118" ry="28.985" cx="76.118" cy="28.985"/></g><g width="102.9398500150287" height="36.28395535266432" transform="scale(1,1) translate(24.648,10.843)"><text width="102.9398500150287" height="31.249998092651367" transform="scale(1,1) translate(0,2.516978630006477)" xml:space="preserve"><tspan xml:space="preserve" text-rendering="optimizeSpeed" font-size="13.88888888888889" font-weight="normal" font-style="normal" fill="#333333" opacity="1" x="9.41" text-anchor="start" y="12.5" textLength="84.11920928955078" style="font-family: Arial, Helvetica Neue, Helvetica, sans-serif;">&lt;ActiveDAO&gt;</tspan><tspan xml:space="preserve" text-rendering="optimizeSpeed" font-size="13.88888888888889" font-weight="normal" font-style="normal" fill="#333333" opacity="1" x="13.268" text-anchor="start" y="28.125" textLength="76.40354919433594" style="font-family: Arial, Helvetica Neue, Helvetica, sans-serif;">createActive</tspan></text></g></g><g width="349.902" height="25" transform="scale(1,1) translate(137.167,19.167)"><g stroke="#000000" opacity="1" stroke-width="0" stroke-dasharray="none" width="349.902" height="25" transform="scale(1,1) translate(0,0)" fill="none" stroke-opacity="1"><rect width="349.902" height="25"/></g><g width="349.901611328125" height="24.999998092651367" transform="scale(1,1) translate(0,0)"><text width="349.901611328125" height="24.999998092651367" transform="scale(1,1) translate(0,0)" xml:space="preserve"><tspan xml:space="preserve" text-rendering="optimizeSpeed" font-size="22.22222222222222" font-weight="bold" font-style="normal" fill="#333333" opacity="1" x="0" text-anchor="start" y="19.792" textLength="349.901611328125" style="font-family: Arial, Helvetica Neue, Helvetica, sans-serif;">Use Case Diagram: Create Active</tspan></text></g></g><g width="152.167" height="62.217" transform="scale(1,1) translate(270.877,426.212)"><g width="152.167" height="62.217" transform="scale(1,1) translate(0,0)" stroke="#7F7F7F" stroke-width="1" stroke-dasharray="none" fill="#CDC29C" fill-opacity="1" stroke-opacity="1" filter="url(#fadeebc1-2f58-4cba-85d7-65698ed7f114)"><ellipse rx="76.0835" ry="31.1085" cx="76.0835" cy="31.1085"/></g><g width="102.89097521233333" height="39.286755247434755" transform="scale(1,1) translate(24.638,11.465)"><text width="102.89097521233333" height="31.249998092651367" transform="scale(1,1) translate(0,4.018378577391694)" xml:space="preserve"><tspan xml:space="preserve" text-rendering="optimizeSpeed" font-size="13.88888888888889" font-weight="normal" font-style="normal" fill="#333333" opacity="1" x="3.338" text-anchor="start" y="12.5" textLength="92.35684204101562" style="font-family: Arial, Helvetica Neue, Helvetica, sans-serif;">Validate Empty</tspan><tspan xml:space="preserve" text-rendering="optimizeSpeed" font-size="13.88888888888889" font-weight="normal" font-style="normal" fill="#333333" opacity="1" x="32.926" text-anchor="start" y="28.125" textLength="37.03901672363281" style="font-family: Arial, Helvetica Neue, Helvetica, sans-serif;">Fields</tspan></text></g></g><g width="0.1" height="37.781" transform="scale(1,1) translate(346.961,388.431)"><g transform="scale(1,1) translate(0,0)" fill="#545454" stroke="#545454" stroke-opacity="1"><path d="M0.1,0 L0,37.781" fill="none" stroke-width="2" stroke-dasharray="6,2"/><g><g stroke-dasharray="none"><path d="M-1.9,-2L2.1,-2L2.1,2L-1.9,2z" stroke-width="0" fill="none"/></g></g></g><g stroke-width="0" stroke-dasharray="none" fill="#FFFFFF" opacity="1" width="79.21" height="17.625" transform="scale(1,1) translate(-39.555,10.078)"><rect width="79.21" height="17.625"/></g><g width="77.21037292480469" height="37.78140566925151" transform="scale(1,1) translate(-38.555,11.078)"><text width="77.21037292480469" height="15.624999046325684" transform="scale(1,1) translate(0,0)" xml:space="preserve"><tspan xml:space="preserve" text-rendering="optimizeSpeed" font-size="13.88888888888889" font-weight="normal" font-style="normal" fill="#000000" opacity="1" x="0" text-anchor="start" y="12.5" textLength="77.21037292480469" style="font-family: Arial, Helvetica Neue, Helvetica, sans-serif;">&lt;&lt;Include&gt;&gt;</tspan></text></g></g><g width="152.167" height="59.117" transform="scale(1,1) translate(271.677,523.242)"><g width="152.167" height="59.117" transform="scale(1,1) translate(0,0)" stroke="#7F7F7F" stroke-width="1" stroke-dasharray="none" fill="#CDC29C" fill-opacity="1" stroke-opacity="1" filter="url(#fadeebc1-2f58-4cba-85d7-65698ed7f114)"><ellipse rx="76.0835" ry="29.5585" cx="76.0835" cy="29.5585"/></g><g width="102.89097521233333" height="37.09471983139826" transform="scale(1,1) translate(24.638,11.011)"><text width="102.89097521233333" height="15.624999046325684" transform="scale(1,1) translate(0,10.734860392536287)" xml:space="preserve"><tspan xml:space="preserve" text-rendering="optimizeSpeed" font-size="13.88888888888889" font-weight="normal" font-style="normal" fill="#333333" opacity="1" x="6.806" text-anchor="start" y="12.5" textLength="89.27873229980469" style="font-family: Arial, Helvetica Neue, Helvetica, sans-serif;">Validate Dates</tspan></text></g></g><g width="0.8" height="34.814" transform="scale(1,1) translate(346.961,488.429)"><g transform="scale(1,1) translate(0,0)" fill="#545454" stroke="#545454" stroke-opacity="1"><path d="M0,0 L0.8,34.814" fill="none" stroke-width="2" stroke-dasharray="6,2"/><g><g stroke-dasharray="none"><path d="M-2,-2L2,-2L2,2L-2,2z" stroke-width="0" fill="none"/></g></g></g><g stroke-width="0" stroke-dasharray="none" fill="#FFFFFF" opacity="1" width="79.21" height="17.625" transform="scale(1,1) translate(-39.205,8.594)"><rect width="79.21" height="17.625"/></g><g width="77.21037292480469" height="34.81353979437978" transform="scale(1,1) translate(-38.205,9.594)"><text width="77.21037292480469" height="15.624999046325684" transform="scale(1,1) translate(0,0)" xml:space="preserve"><tspan xml:space="preserve" text-rendering="optimizeSpeed" font-size="13.88888888888889" font-weight="normal" font-style="normal" fill="#000000" opacity="1" x="0" text-anchor="start" y="12.5" textLength="77.21037292480469" style="font-family: Arial, Helvetica Neue, Helvetica, sans-serif;">&lt;&lt;Include&gt;&gt;</tspan></text></g></g><g width="47.5" height="95.167" transform="scale(1,1) translate(651.741,300.277)"><g width="47.5" height="95.167" fill="url(#f2522530-a982-4f14-8d71-62c0cb11e31c)" filter="url(#eb594337-15da-495a-80b0-b00885abc3c2)"><linearGradient id="f2522530-a982-4f14-8d71-62c0cb11e31c" x1="23.75" y1="0" x2="23.75" y2="95.167" gradientUnits="userSpaceOnUse"><stop offset="0%" style="stop-color:#92B0CF;stop-opacity:1;"/><stop offset="100%" style="stop-color:#8CA8CD;stop-opacity:1;"/></linearGradient><g transform="scale(0.979664308817572,0.9895979353185028) translate(0,0)"><g><g width="0" height="42.167" transform="scale(1,1) translate(23.333,23.667)"><g transform="scale(1,1) translate(0,0)" fill="#7F7F7F" stroke="#7F7F7F" stroke-opacity="1"><path d="M0,0 L0,42.167" fill="none" stroke-width="1" stroke-dasharray="none"/><g><g stroke-dasharray="none"><path d="M-2,-2L2,-2L2,2L-2,2z" stroke-width="0" fill="none"/></g></g></g></g><g width="23.167" height="23" transform="scale(1,1) translate(11.5,1)"><g width="23.167" height="23" transform="scale(1,1) translate(0,0)" stroke="#7F7F7F" stroke-width="1" stroke-dasharray="none" fill="none" stroke-opacity="1"><ellipse rx="11.5835" ry="11.5" cx="11.5835" cy="11.5"/></g></g><g width="22.333" height="11.833" transform="scale(1,1) translate(1,35.5)"><g transform="scale(1,1) translate(0,0)" fill="#7F7F7F" stroke="#7F7F7F" stroke-opacity="1"><path d="M0,11.833 L22.333,0" fill="none" stroke-width="1" stroke-dasharray="none"/><g><g stroke-dasharray="none"><path d="M-2,9.833L2,9.833L2,13.833L-2,13.833z" stroke-width="0" fill="none"/></g></g></g></g><g width="22.333" height="13.5" transform="scale(1,1) translate(23.153,35.682)"><g transform="scale(1,1) translate(0,0)" fill="#7F7F7F" stroke="#7F7F7F" stroke-opacity="1"><path d="M0,0 L22.333,13.5" fill="none" stroke-width="1" stroke-dasharray="none"/><g><g stroke-dasharray="none"><path d="M-2,-2L2,-2L2,2L-2,2z" stroke-width="0" fill="none"/></g></g></g></g><g width="19.167" height="28.167" transform="scale(1,1) translate(4.167,65)"><g transform="scale(1,1) translate(0,0)" fill="#7F7F7F" stroke="#7F7F7F" stroke-opacity="1"><path d="M0,28.167 L19.167,0" fill="none" stroke-width="1" stroke-dasharray="none"/><g><g stroke-dasharray="none"><path d="M-2,26.167L2,26.167L2,30.167L-2,30.167z" stroke-width="0" fill="none"/></g></g></g></g><g width="16.333" height="26.833" transform="scale(1,1) translate(23.152,65.167)"><g transform="scale(1,1) translate(0,0)" fill="#7F7F7F" stroke="#7F7F7F" stroke-opacity="1"><path d="M0,0 L16.333,26.833" fill="none" stroke-width="1" stroke-dasharray="none"/><g><g stroke-dasharray="none"><path d="M-2,-2L2,-2L2,2L-2,2z" stroke-width="0" fill="none"/></g></g></g></g></g></g></g><g width="104.98117065429688" height="31.249998092651367" transform="scale(1,1) translate(-28.741,95.167)"><text width="104.98117065429688" height="31.249998092651367" transform="scale(1,1) translate(0,0)" xml:space="preserve"><tspan xml:space="preserve" text-rendering="optimizeSpeed" font-size="13.88888888888889" font-weight="normal" font-style="normal" fill="#333333" opacity="1" x="0" text-anchor="start" y="12.5" textLength="104.98117065429688" style="font-family: Arial, Helvetica Neue, Helvetica, sans-serif;">&lt;&lt;Persistence&gt;&gt;</tspan><tspan xml:space="preserve" text-rendering="optimizeSpeed" font-size="13.88888888888889" font-weight="normal" font-style="normal" fill="#333333" opacity="1" x="21.618" text-anchor="start" y="28.125" textLength="61.74527359008789" style="font-family: Arial, Helvetica Neue, Helvetica, sans-serif;">MongoDB</tspan></text></g></g><g width="159.775" height="184.534" transform="scale(1,1) translate(111.29,155.31)"><g transform="scale(1,1) translate(0,0)" fill="#545454" stroke="#545454" stroke-opacity="1"><path d="M0,184.534 L159.775,0" fill="none" stroke-width="1" stroke-dasharray="none"/><g><g stroke-dasharray="none"><path d="M-1,183.534L1,183.534L1,185.534L-1,185.534z" stroke-width="0" fill="none"/></g></g></g></g><g width="227.897" height="204.94" transform="scale(1,1) translate(423.844,347.861)"><g transform="scale(1,1) translate(0,0)" fill="#545454" stroke="#545454" stroke-opacity="1"><path d="M0,204.94 L227.897,0" fill="none" stroke-width="1" stroke-dasharray="none"/><g><g stroke-dasharray="none"><path d="M-1,203.94L1,203.94L1,205.94L-1,205.94z" stroke-width="0" fill="none"/></g></g></g></g><g width="151.791" height="67.333" transform="scale(1,1) translate(271.065,121.644)"><g width="151.791" height="67.333" transform="scale(1,1) translate(0,0)" stroke="#7F7F7F" stroke-width="1" stroke-dasharray="none" fill="#CDC29C" fill-opacity="1" stroke-opacity="1" filter="url(#fadeebc1-2f58-4cba-85d7-65698ed7f114)"><ellipse rx="75.8955" ry="33.6665" cx="75.8955" cy="33.6665"/></g><g width="102.62530093580412" height="42.90474987266666" transform="scale(1,1) translate(24.583,12.214)"><text width="102.62530093580412" height="31.249998092651367" transform="scale(1,1) translate(0,5.827375890007648)" xml:space="preserve"><tspan xml:space="preserve" text-rendering="optimizeSpeed" font-size="13.88888888888889" font-weight="normal" font-style="normal" fill="#333333" opacity="1" x="25.457" text-anchor="start" y="12.5" textLength="51.71088790893555" style="font-family: Arial, Helvetica Neue, Helvetica, sans-serif;">Rest Api</tspan><tspan xml:space="preserve" text-rendering="optimizeSpeed" font-size="13.88888888888889" font-weight="normal" font-style="normal" fill="#333333" opacity="1" x="1.531" text-anchor="start" y="28.125" textLength="99.56395721435547" style="font-family: Arial, Helvetica Neue, Helvetica, sans-serif;">&lt;/create-active&gt;</tspan></text></g></g><g width="151.833" height="67.333" transform="scale(1,1) translate(271.144,221.554)"><g width="151.833" height="67.333" transform="scale(1,1) translate(0,0)" stroke="#7F7F7F" stroke-width="1" stroke-dasharray="none" fill="#CDC29C" fill-opacity="1" stroke-opacity="1" filter="url(#fadeebc1-2f58-4cba-85d7-65698ed7f114)"><ellipse rx="75.9165" ry="33.6665" cx="75.9165" cy="33.6665"/></g><g width="102.65527295166666" height="42.90474987266666" transform="scale(1,1) translate(24.589,12.214)"><text width="102.65527295166666" height="31.249998092651367" transform="scale(1,1) translate(0,5.827375890007648)" xml:space="preserve"><tspan xml:space="preserve" text-rendering="optimizeSpeed" font-size="13.88888888888889" font-weight="normal" font-style="normal" fill="#333333" opacity="1" x="1.535" text-anchor="start" y="12.5" textLength="99.58430480957031" style="font-family: Arial, Helvetica Neue, Helvetica, sans-serif;">&lt;AtiveBoundar&gt;</tspan><tspan xml:space="preserve" text-rendering="optimizeSpeed" font-size="13.88888888888889" font-weight="normal" font-style="normal" fill="#333333" opacity="1" x="13.126" text-anchor="start" y="28.125" textLength="76.40354919433594" style="font-family: Arial, Helvetica Neue, Helvetica, sans-serif;">createActive</tspan></text></g></g><g width="0.1" height="32.577" transform="scale(1,1) translate(346.961,188.977)"><g transform="scale(1,1) translate(0,0)" fill="#000000" stroke="#000000" stroke-opacity="1"><path d="M 0.018 6 L 0.1 32.577" fill="none" stroke-width="2" stroke-dasharray="none"/><g><g stroke-dasharray="none"><path d="M-0.482,6.002A6,6 269.824 1 1 0.518,5.998z" stroke-width="1" fill="none"/></g><g stroke-dasharray="none"><path d="M6.063,20.559L0.1,32.577L-5.937,20.595" stroke-width="1" fill="none"/></g></g></g></g><g width="0" height="41.574" transform="scale(1,1) translate(347.061,288.887)"><g transform="scale(1,1) translate(0,0)" fill="#000000" stroke="#000000" stroke-opacity="1"><path d="M 0 6 L 0 41.574" fill="none" stroke-width="2" stroke-dasharray="none"/><g><g stroke-dasharray="none"><path d="M-0.5,6A6,6 270 1 1 0.5,6z" stroke-width="1" fill="none"/></g><g stroke-dasharray="none"><path d="M6,29.574L0,41.574L-6,29.574" stroke-width="1" fill="none"/></g></g></g></g></g></svg>