<?xml version="1.0" standalone="no"?><!DOCTYPE svg PUBLIC "-//W3C//DTD SVG 1.1//EN" "http://www.w3.org/Graphics/SVG/1.1/DTD/svg11.dtd"><svg xmlns="http://www.w3.org/2000/svg" version="1.1" width="712.413" height="714.833" xmlns:xlink="http://www.w3.org/1999/xlink" xlink="http://www.w3.org/1999/xlink" style="position:relative;overflow:hidden;" viewBox="21.29 7.167 712.413 714.833"><defs><filter id="25e660c1-9e22-43bc-89f3-012916b0bb60" x="-0.5" y="-0.25" width="2" height="1.5"><feFlood flood-color="#000" flood-opacity="0.6" result="flood"/><feComposite in="flood" in2="SourceAlpha" operator="in" result="mask"/><feGaussianBlur in="mask" stdDeviation="2"/><feOffset dx="1.25" dy="1.25" result="oEffect0"/><feMerge><feMergeNode in="oEffect0"/><feMergeNode in="SourceGraphic"/></feMerge></filter><filter id="345f3745-36ae-49e0-85c7-1b6f7b8e2f07" x="-0.5" y="-0.5" width="2" height="2"><feFlood flood-color="#000" flood-opacity="0.6" result="flood"/><feComposite in="flood" in2="SourceAlpha" operator="in" result="mask"/><feGaussianBlur in="mask" stdDeviation="2"/><feOffset dx="1.25" dy="1.25" result="oEffect0"/><feMerge><feMergeNode in="oEffect0"/><feMergeNode in="SourceGraphic"/></feMerge></filter><filter id="9f989ee2-5d9d-4146-833c-2b2fec6db203" x="-0.5" y="-0.5" width="2" height="2"><feFlood flood-color="#000" flood-opacity="0.6" result="flood"/><feComposite in="flood" in2="SourceAlpha" operator="in" result="mask"/><feGaussianBlur in="mask" stdDeviation="2"/><feOffset dx="1.2125000000000001" dy="1.2125000000000001" result="oEffect0"/><feMerge><feMergeNode in="oEffect0"/><feMergeNode in="SourceGraphic"/></feMerge></filter></defs><g><g width="391.5" height="624.833" transform="scale(1,1) translate(172.5,91.667)"><g stroke="#7F7F7F" opacity="1" stroke-width="1" stroke-dasharray="none" width="391.5" height="624.833" transform="scale(1,1) translate(0,0)" fill="url(#e3de479c-2f36-4bc3-8cde-ede30a2e1cf6)" stroke-opacity="1" filter="url(#25e660c1-9e22-43bc-89f3-012916b0bb60)"><linearGradient id="e3de479c-2f36-4bc3-8cde-ede30a2e1cf6" x1="195.75" y1="0" x2="195.75" y2="624.833" gradientUnits="userSpaceOnUse"><stop offset="0%" style="stop-color:#C4D5E6;stop-opacity:1;"/><stop offset="100%" style="stop-color:#B6CDE4;stop-opacity:1;"/></linearGradient><rect width="391.5" height="624.833"/></g><g width="390.5" height="623.8333333333333" transform="scale(1,1) translate(0.5,0.5)"><text width="390.5" height="15.624999046325684" transform="scale(1,1) translate(0,608.2083342870076)" xml:space="preserve"><tspan xml:space="preserve" text-rendering="optimizeSpeed" font-size="13.88888888888889" font-weight="bold" font-style="normal" fill="#333333" opacity="1" x="326.422" text-anchor="start" y="12.5" textLength="64.07756805419922" style="font-family: Arial, Helvetica Neue, Helvetica, sans-serif;">Release 2</tspan></text></g></g><g width="351.333" height="491.5" transform="scale(1,1) translate(189.5,108.333)"><g stroke="#7F7F7F" opacity="1" stroke-width="1" stroke-dasharray="none" width="351.333" height="491.5" transform="scale(1,1) translate(0,0)" fill="url(#52b3fce0-e533-4c28-8e6a-0be05c4e6126)" stroke-opacity="1" filter="url(#345f3745-36ae-49e0-85c7-1b6f7b8e2f07)"><linearGradient id="52b3fce0-e533-4c28-8e6a-0be05c4e6126" x1="175.6665" y1="0" x2="175.6665" y2="491.5" gradientUnits="userSpaceOnUse"><stop offset="0%" style="stop-color:#C4D5E6;stop-opacity:1;"/><stop offset="100%" style="stop-color:#B6CDE4;stop-opacity:1;"/></linearGradient><rect width="351.333" height="491.5"/></g><g width="350.3333333333333" height="490.5" transform="scale(1,1) translate(0.5,0.5)"><text width="350.3333333333333" height="15.624999046325684" transform="scale(1,1) translate(0,474.8750009536743)" xml:space="preserve"><tspan xml:space="preserve" text-rendering="optimizeSpeed" font-size="13.88888888888889" font-weight="bold" font-style="normal" fill="#333333" opacity="1" x="286.256" text-anchor="start" y="12.5" textLength="64.07756805419922" style="font-family: Arial, Helvetica Neue, Helvetica, sans-serif;">Release 1</tspan></text></g></g><g width="48.5" height="0" transform="scale(1,1) translate(63.79,339.761)"><g fill="#545454" stroke="#545454" stroke-opacity="1" transform="scale(1,1) translate(0,0)"><path fill="none" stroke-width="1" stroke-dasharray="none" d="M0,0 L0,0 M0,0 L0,0 M48.5,0 L48.5,0 M0,0 L0,0"/><g><g stroke-dasharray="none"><path d="M0,0L-10,0L-10,-10L0,-10z" stroke-width="0" fill="none"/></g></g></g></g><g width="47.5" height="95.167" transform="scale(1,1) translate(63.79,292.261)"><g width="47.5" height="95.167" fill="url(#f45a9868-2807-49dd-8916-508c9eda7eb5)" filter="url(#9f989ee2-5d9d-4146-833c-2b2fec6db203)"><linearGradient id="f45a9868-2807-49dd-8916-508c9eda7eb5" x1="23.75" y1="0" x2="23.75" y2="95.167" gradientUnits="userSpaceOnUse"><stop offset="0%" style="stop-color:#92B0CF;stop-opacity:1;"/><stop offset="100%" style="stop-color:#8CA8CD;stop-opacity:1;"/></linearGradient><g transform="scale(0.979664308817572,0.9895979353185028) translate(0,0)"><g><g width="0" height="42.167" transform="scale(1,1) translate(23.333,23.667)"><g transform="scale(1,1) translate(0,0)" fill="#7F7F7F" stroke="#7F7F7F" stroke-opacity="1"><path d="M0,0 L0,42.167" fill="none" stroke-width="1" stroke-dasharray="none"/><g><g stroke-dasharray="none"><path d="M-2,-2L2,-2L2,2L-2,2z" stroke-width="0" fill="none"/></g></g></g></g><g width="23.167" height="23" transform="scale(1,1) translate(11.5,1)"><g width="23.167" height="23" transform="scale(1,1) translate(0,0)" stroke="#7F7F7F" stroke-width="1" stroke-dasharray="none" fill="none" stroke-opacity="1"><ellipse rx="11.5835" ry="11.5" cx="11.5835" cy="11.5"/></g></g><g width="22.333" height="11.833" transform="scale(1,1) translate(1,35.5)"><g transform="scale(1,1) translate(0,0)" fill="#7F7F7F" stroke="#7F7F7F" stroke-opacity="1"><path d="M0,11.833 L22.333,0" fill="none" stroke-width="1" stroke-dasharray="none"/><g><g stroke-dasharray="none"><path d="M-2,9.833L2,9.833L2,13.833L-2,13.833z" stroke-width="0" fill="none"/></g></g></g></g><g width="22.333" height="13.5" transform="scale(1,1) translate(23.153,35.682)"><g transform="scale(1,1) translate(0,0)" fill="#7F7F7F" stroke="#7F7F7F" stroke-opacity="1"><path d="M0,0 L22.333,13.5" fill="none" stroke-width="1" stroke-dasharray="none"/><g><g stroke-dasharray="none"><path d="M-2,-2L2,-2L2,2L-2,2z" stroke-width="0" fill="none"/></g></g></g></g><g width="19.167" height="28.167" transform="scale(1,1) translate(4.167,65)"><g transform="scale(1,1) translate(0,0)" fill="#7F7F7F" stroke="#7F7F7F" stroke-opacity="1"><path d="M0,28.167 L19.167,0" fill="none" stroke-width="1" stroke-dasharray="none"/><g><g stroke-dasharray="none"><path d="M-2,26.167L2,26.167L2,30.167L-2,30.167z" stroke-width="0" fill="none"/></g></g></g></g><g width="16.333" height="26.833" transform="scale(1,1) translate(23.152,65.167)"><g transform="scale(1,1) translate(0,0)" fill="#7F7F7F" stroke="#7F7F7F" stroke-opacity="1"><path d="M0,0 L16.333,26.833" fill="none" stroke-width="1" stroke-dasharray="none"/><g><g stroke-dasharray="none"><path d="M-2,-2L2,-2L2,2L-2,2z" stroke-width="0" fill="none"/></g></g></g></g></g></g></g><g width="94.68917846679688" height="31.249998092651367" transform="scale(1,1) translate(-23.595,95.167)"><text width="94.68917846679688" height="31.249998092651367" transform="scale(1,1) translate(0,0)" xml:space="preserve"><tspan xml:space="preserve" text-rendering="optimizeSpeed" font-size="13.88888888888889" font-weight="normal" font-style="normal" fill="#333333" opacity="1" x="0" text-anchor="start" y="12.5" textLength="94.68917846679688" style="font-family: Arial, Helvetica Neue, Helvetica, sans-serif;">&lt;&lt;REST API&gt;&gt;</tspan><tspan xml:space="preserve" text-rendering="optimizeSpeed" font-size="13.88888888888889" font-weight="normal" font-style="normal" fill="#333333" opacity="1" x="29.595" text-anchor="start" y="28.125" textLength="35.49995040893555" style="font-family: Arial, Helvetica Neue, Helvetica, sans-serif;">Client</tspan></text></g></g><g width="152.167" height="62.217" transform="scale(1,1) translate(269.877,239.212)"><g width="152.167" height="62.217" transform="scale(1,1) translate(0,0)" stroke="#7F7F7F" stroke-width="1" stroke-dasharray="none" fill="#CDC29C" fill-opacity="1" stroke-opacity="1" filter="url(#345f3745-36ae-49e0-85c7-1b6f7b8e2f07)"><ellipse rx="76.0835" ry="31.1085" cx="76.0835" cy="31.1085"/></g><g width="102.89097521233333" height="39.286755247434755" transform="scale(1,1) translate(24.638,11.465)"><text width="102.89097521233333" height="31.249998092651367" transform="scale(1,1) translate(0,4.018378577391694)" xml:space="preserve"><tspan xml:space="preserve" text-rendering="optimizeSpeed" font-size="13.88888888888889" font-weight="normal" font-style="normal" fill="#333333" opacity="1" x="11.694" text-anchor="start" y="12.5" textLength="79.50202941894531" style="font-family: Arial, Helvetica Neue, Helvetica, sans-serif;">&lt;ActiveDao&gt;</tspan><tspan xml:space="preserve" text-rendering="optimizeSpeed" font-size="13.88888888888889" font-weight="normal" font-style="normal" fill="#333333" opacity="1" x="22.502" text-anchor="start" y="28.125" textLength="57.887413024902344" style="font-family: Arial, Helvetica Neue, Helvetica, sans-serif;">delete(id)</tspan></text></g></g><g width="47.5" height="95.167" transform="scale(1,1) translate(651.741,300.277)"><g width="47.5" height="95.167" fill="url(#796e340b-62a8-4378-8168-7af75940c2b8)" filter="url(#9f989ee2-5d9d-4146-833c-2b2fec6db203)"><linearGradient id="796e340b-62a8-4378-8168-7af75940c2b8" x1="23.75" y1="0" x2="23.75" y2="95.167" gradientUnits="userSpaceOnUse"><stop offset="0%" style="stop-color:#92B0CF;stop-opacity:1;"/><stop offset="100%" style="stop-color:#8CA8CD;stop-opacity:1;"/></linearGradient><g transform="scale(0.979664308817572,0.9895979353185028) translate(0,0)"><g><g width="0" height="42.167" transform="scale(1,1) translate(23.333,23.667)"><g transform="scale(1,1) translate(0,0)" fill="#7F7F7F" stroke="#7F7F7F" stroke-opacity="1"><path d="M0,0 L0,42.167" fill="none" stroke-width="1" stroke-dasharray="none"/><g><g stroke-dasharray="none"><path d="M-2,-2L2,-2L2,2L-2,2z" stroke-width="0" fill="none"/></g></g></g></g><g width="23.167" height="23" transform="scale(1,1) translate(11.5,1)"><g width="23.167" height="23" transform="scale(1,1) translate(0,0)" stroke="#7F7F7F" stroke-width="1" stroke-dasharray="none" fill="none" stroke-opacity="1"><ellipse rx="11.5835" ry="11.5" cx="11.5835" cy="11.5"/></g></g><g width="22.333" height="11.833" transform="scale(1,1) translate(1,35.5)"><g transform="scale(1,1) translate(0,0)" fill="#7F7F7F" stroke="#7F7F7F" stroke-opacity="1"><path d="M0,11.833 L22.333,0" fill="none" stroke-width="1" stroke-dasharray="none"/><g><g stroke-dasharray="none"><path d="M-2,9.833L2,9.833L2,13.833L-2,13.833z" stroke-width="0" fill="none"/></g></g></g></g><g width="22.333" height="13.5" transform="scale(1,1) translate(23.153,35.682)"><g transform="scale(1,1) translate(0,0)" fill="#7F7F7F" stroke="#7F7F7F" stroke-opacity="1"><path d="M0,0 L22.333,13.5" fill="none" stroke-width="1" stroke-dasharray="none"/><g><g stroke-dasharray="none"><path d="M-2,-2L2,-2L2,2L-2,2z" stroke-width="0" fill="none"/></g></g></g></g><g width="19.167" height="28.167" transform="scale(1,1) translate(4.167,65)"><g transform="scale(1,1) translate(0,0)" fill="#7F7F7F" stroke="#7F7F7F" stroke-opacity="1"><path d="M0,28.167 L19.167,0" fill="none" stroke-width="1" stroke-dasharray="none"/><g><g stroke-dasharray="none"><path d="M-2,26.167L2,26.167L2,30.167L-2,30.167z" stroke-width="0" fill="none"/></g></g></g></g><g width="16.333" height="26.833" transform="scale(1,1) translate(23.152,65.167)"><g transform="scale(1,1) translate(0,0)" fill="#7F7F7F" stroke="#7F7F7F" stroke-opacity="1"><path d="M0,0 L16.333,26.833" fill="none" stroke-width="1" stroke-dasharray="none"/><g><g stroke-dasharray="none"><path d="M-2,-2L2,-2L2,2L-2,2z" stroke-width="0" fill="none"/></g></g></g></g></g></g></g><g width="104.98117065429688" height="31.249998092651367" transform="scale(1,1) translate(-28.741,95.167)"><text width="104.98117065429688" height="31.249998092651367" transform="scale(1,1) translate(0,0)" xml:space="preserve"><tspan xml:space="preserve" text-rendering="optimizeSpeed" font-size="13.88888888888889" font-weight="normal" font-style="normal" fill="#333333" opacity="1" x="0" text-anchor="start" y="12.5" textLength="104.98117065429688" style="font-family: Arial, Helvetica Neue, Helvetica, sans-serif;">&lt;&lt;Persistence&gt;&gt;</tspan><tspan xml:space="preserve" text-rendering="optimizeSpeed" font-size="13.88888888888889" font-weight="normal" font-style="normal" fill="#333333" opacity="1" x="21.618" text-anchor="start" y="28.125" textLength="61.74527359008789" style="font-family: Arial, Helvetica Neue, Helvetica, sans-serif;">MongoDB</tspan></text></g></g><g width="157.526" height="69.878" transform="scale(1,1) translate(267.198,118.372)"><g width="157.526" height="69.878" transform="scale(1,1) translate(0,0)" stroke="#7F7F7F" stroke-width="1" stroke-dasharray="none" fill="#CDC29C" fill-opacity="1" stroke-opacity="1" filter="url(#345f3745-36ae-49e0-85c7-1b6f7b8e2f07)"><ellipse rx="78.763" ry="34.939" cx="78.763" cy="34.939"/></g><g width="106.68086562986662" height="44.70376816521356" transform="scale(1,1) translate(25.423,12.587)"><text width="106.68086562986662" height="31.249998092651367" transform="scale(1,1) translate(0,6.726885036281097)" xml:space="preserve"><tspan xml:space="preserve" text-rendering="optimizeSpeed" font-size="13.88888888888889" font-weight="normal" font-style="normal" fill="#333333" opacity="1" x="27.485" text-anchor="start" y="12.5" textLength="51.71088790893555" style="font-family: Arial, Helvetica Neue, Helvetica, sans-serif;">Rest Api</tspan><tspan xml:space="preserve" text-rendering="optimizeSpeed" font-size="13.88888888888889" font-weight="normal" font-style="normal" fill="#333333" opacity="1" x="0.467" text-anchor="start" y="28.125" textLength="105.7472915649414" style="font-family: Arial, Helvetica Neue, Helvetica, sans-serif;">&lt;/delete-actives&gt;</tspan></text></g></g><g width="0" height="50.963" transform="scale(1,1) translate(345.961,188.249)"><g transform="scale(1,1) translate(0,0)" fill="#000000" stroke="#000000" stroke-opacity="1"><path d="M 0 6 L 0 50.963" fill="none" stroke-width="2" stroke-dasharray="none"/><g><g stroke-dasharray="none"><path d="M-0.5,6A6,6 270 1 1 0.5,6z" stroke-width="1" fill="none"/></g><g stroke-dasharray="none"><path d="M6,38.963L0,50.963L-6,38.963" stroke-width="1" fill="none"/></g></g></g></g><g width="228.597" height="156.32" transform="scale(1,1) translate(423.144,347.861)"><g transform="scale(1,1) translate(0,0)" fill="#000000" stroke="#000000" stroke-opacity="1"><path d="M 4.953 152.933 L 228.597 0" fill="none" stroke-width="2" stroke-dasharray="none"/><g><g stroke-dasharray="none"><path d="M5.235,153.346A6,6 145.635 1 1 4.671,152.52z" stroke-width="1" fill="none"/></g><g stroke-dasharray="none"><path d="M215.305,1.821L228.597,0L222.078,11.726" stroke-width="1" fill="none"/></g></g></g></g><g width="152.167" height="62.333" transform="scale(1,1) translate(270.977,356.704)"><g width="152.167" height="62.333" transform="scale(1,1) translate(0,0)" stroke="#7F7F7F" stroke-width="1" stroke-dasharray="none" fill="#CDC29C" fill-opacity="1" stroke-opacity="1" filter="url(#345f3745-36ae-49e0-85c7-1b6f7b8e2f07)"><ellipse rx="76.0835" ry="31.1665" cx="76.0835" cy="31.1665"/></g><g width="102.89097521233333" height="39.36921596266666" transform="scale(1,1) translate(24.638,11.482)"><text width="102.89097521233333" height="31.249998092651367" transform="scale(1,1) translate(0,4.059608935007645)" xml:space="preserve"><tspan xml:space="preserve" text-rendering="optimizeSpeed" font-size="13.88888888888889" font-weight="normal" font-style="normal" fill="#333333" opacity="1" x="24.943" text-anchor="start" y="12.5" textLength="49.148033142089844" style="font-family: Arial, Helvetica Neue, Helvetica, sans-serif;">Validate</tspan><tspan xml:space="preserve" text-rendering="optimizeSpeed" font-size="13.88888888888889" font-weight="normal" font-style="normal" fill="#333333" opacity="1" x="21.346" text-anchor="start" y="28.125" textLength="60.199432373046875" style="font-family: Arial, Helvetica Neue, Helvetica, sans-serif;">Existence</tspan></text></g></g><g width="1.1" height="55.275" transform="scale(1,1) translate(345.961,301.429)"><g transform="scale(1,1) translate(0,0)" fill="#545454" stroke="#545454" stroke-opacity="1"><path d="M0,0 L1.1,55.275" fill="none" stroke-width="2" stroke-dasharray="6,2"/><g><g stroke-dasharray="none"><path d="M-2,-2L2,-2L2,2L-2,2z" stroke-width="0" fill="none"/></g></g></g><g stroke-width="0" stroke-dasharray="none" fill="#FFFFFF" opacity="1" width="78.437" height="17.625" transform="scale(1,1) translate(-38.669,18.825)"><rect width="78.437" height="17.625"/></g><g width="76.43745422363281" height="55.275350298271746" transform="scale(1,1) translate(-37.669,19.825)"><text width="76.43745422363281" height="15.624999046325684" transform="scale(1,1) translate(0,0)" xml:space="preserve"><tspan xml:space="preserve" text-rendering="optimizeSpeed" font-size="13.88888888888889" font-weight="normal" font-style="normal" fill="#000000" opacity="1" x="0" text-anchor="start" y="12.5" textLength="76.43745422363281" style="font-family: Arial, Helvetica Neue, Helvetica, sans-serif;">&lt;&lt;include&gt;&gt;</tspan></text></g></g><g width="152.167" height="62.333" transform="scale(1,1) translate(270.977,473.014)"><g width="152.167" height="62.333" transform="scale(1,1) translate(0,0)" stroke="#7F7F7F" stroke-width="1" stroke-dasharray="none" fill="#CDC29C" fill-opacity="1" stroke-opacity="1" filter="url(#345f3745-36ae-49e0-85c7-1b6f7b8e2f07)"><ellipse rx="76.0835" ry="31.1665" cx="76.0835" cy="31.1665"/></g><g width="102.89097521233333" height="39.36921596266666" transform="scale(1,1) translate(24.638,11.482)"><text width="102.89097521233333" height="15.624999046325684" transform="scale(1,1) translate(0,11.872108458170487)" xml:space="preserve"><tspan xml:space="preserve" text-rendering="optimizeSpeed" font-size="13.88888888888889" font-weight="normal" font-style="normal" fill="#333333" opacity="1" x="5.26" text-anchor="start" y="12.5" textLength="92.3703842163086" style="font-family: Arial, Helvetica Neue, Helvetica, sans-serif;">Validate Status</tspan></text></g></g><g width="0" height="53.977" transform="scale(1,1) translate(347.061,419.038)"><g transform="scale(1,1) translate(0,0)" fill="#545454" stroke="#545454" stroke-opacity="1"><path d="M0,0 L0,53.977" fill="none" stroke-width="2" stroke-dasharray="6,2"/><g><g stroke-dasharray="none"><path d="M-2,-2L2,-2L2,2L-2,2z" stroke-width="0" fill="none"/></g></g></g><g stroke-width="0" stroke-dasharray="none" fill="#FFFFFF" opacity="1" width="78.437" height="17.625" transform="scale(1,1) translate(-39.219,18.176)"><rect width="78.437" height="17.625"/></g><g width="76.43745422363281" height="53.97685328703989" transform="scale(1,1) translate(-38.219,19.176)"><text width="76.43745422363281" height="15.624999046325684" transform="scale(1,1) translate(0,0)" xml:space="preserve"><tspan xml:space="preserve" text-rendering="optimizeSpeed" font-size="13.88888888888889" font-weight="normal" font-style="normal" fill="#000000" opacity="1" x="0" text-anchor="start" y="12.5" textLength="76.43745422363281" style="font-family: Arial, Helvetica Neue, Helvetica, sans-serif;">&lt;&lt;include&gt;&gt;</tspan></text></g></g><g width="155.907" height="186.534" transform="scale(1,1) translate(111.29,153.31)"><g transform="scale(1,1) translate(0,0)" fill="#000000" stroke="#000000" stroke-opacity="1"><path d="M 3.848 181.93 L 155.907 0" fill="none" stroke-width="2" stroke-dasharray="none"/><g><g stroke-dasharray="none"><path d="M4.231,182.251A6,6 129.889 1 1 3.464,181.61z" stroke-width="1" fill="none"/></g><g stroke-dasharray="none"><path d="M143.608,5.36L155.907,0L152.815,13.055" stroke-width="1" fill="none"/></g></g></g></g><g width="347.428" height="25" transform="scale(1,1) translate(137.167,19.167)"><g stroke="#000000" opacity="1" stroke-width="0" stroke-dasharray="none" width="347.428" height="25" transform="scale(1,1) translate(0,0)" fill="none" stroke-opacity="1"><rect width="347.428" height="25"/></g><g width="347.4280090332031" height="24.999998092651367" transform="scale(1,1) translate(0,0)"><text width="347.4280090332031" height="24.999998092651367" transform="scale(1,1) translate(0,0)" xml:space="preserve" style="user-select: none; -webkit-user-drag: none; -webkit-tap-highlight-color: rgba(0, 0, 0, 0);"><tspan xml:space="preserve" text-rendering="optimizeSpeed" font-size="22.22222222222222" font-weight="bold" font-style="normal" fill="#333333" opacity="1" x="0" text-anchor="start" y="19.792" textLength="347.4280090332031" style="font-family: Arial, Helvetica Neue, Helvetica, sans-serif;">Use Case Diagram: Delete Active</tspan></text><line visibility="visible" fill="none" stroke-width="1.0416666666666667" stroke="#000" x1="275.3907775878906" y1="0" x2="275.3907775878906" y2="24.999998092651367"/></g></g></g></svg>