<?xml version="1.0" standalone="no"?><!DOCTYPE svg PUBLIC "-//W3C//DTD SVG 1.1//EN" "http://www.w3.org/Graphics/SVG/1.1/DTD/svg11.dtd"><svg xmlns="http://www.w3.org/2000/svg" version="1.1" width="712.413" height="714.833" xmlns:xlink="http://www.w3.org/1999/xlink" xlink="http://www.w3.org/1999/xlink" style="position:relative;overflow:hidden;" viewBox="21.29 7.167 712.413 714.833"><defs><filter id="b1a78f4b-e52d-41c3-89eb-159eda9de8b9" x="-0.5" y="-0.25" width="2" height="1.5"><feFlood flood-color="#000" flood-opacity="0.6" result="flood"/><feComposite in="flood" in2="SourceAlpha" operator="in" result="mask"/><feGaussianBlur in="mask" stdDeviation="2"/><feOffset dx="1.25" dy="1.25" result="oEffect0"/><feMerge><feMergeNode in="oEffect0"/><feMergeNode in="SourceGraphic"/></feMerge></filter><filter id="79e8e5ff-05f0-4727-88b3-8914f5b28cc7" x="-0.5" y="-0.5" width="2" height="2"><feFlood flood-color="#000" flood-opacity="0.6" result="flood"/><feComposite in="flood" in2="SourceAlpha" operator="in" result="mask"/><feGaussianBlur in="mask" stdDeviation="2"/><feOffset dx="1.25" dy="1.25" result="oEffect0"/><feMerge><feMergeNode in="oEffect0"/><feMergeNode in="SourceGraphic"/></feMerge></filter><filter id="0965d991-0681-43e5-8be4-265343109ba0" x="-0.5" y="-0.5" width="2" height="2"><feFlood flood-color="#000" flood-opacity="0.6" result="flood"/><feComposite in="flood" in2="SourceAlpha" operator="in" result="mask"/><feGaussianBlur in="mask" stdDeviation="2"/><feOffset dx="1.2125000000000001" dy="1.2125000000000001" result="oEffect0"/><feMerge><feMergeNode in="oEffect0"/><feMergeNode in="SourceGraphic"/></feMerge></filter></defs><g><g width="391.5" height="624.833" transform="scale(1,1) translate(172.5,91.667)"><g stroke="#7F7F7F" opacity="1" stroke-width="1" stroke-dasharray="none" width="391.5" height="624.833" transform="scale(1,1) translate(0,0)" fill="url(#aef83d15-6f01-4811-84b6-fb91e4464f70)" stroke-opacity="1" filter="url(#b1a78f4b-e52d-41c3-89eb-159eda9de8b9)"><linearGradient id="aef83d15-6f01-4811-84b6-fb91e4464f70" x1="195.75" y1="0" x2="195.75" y2="624.833" gradientUnits="userSpaceOnUse"><stop offset="0%" style="stop-color:#C4D5E6;stop-opacity:1;"/><stop offset="100%" style="stop-color:#B6CDE4;stop-opacity:1;"/></linearGradient><rect width="391.5" height="624.833"/></g><g width="390.5" height="623.8333333333333" transform="scale(1,1) translate(0.5,0.5)"><text width="390.5" height="15.624999046325684" transform="scale(1,1) translate(0,608.2083342870076)" xml:space="preserve"><tspan xml:space="preserve" text-rendering="optimizeSpeed" font-size="13.88888888888889" font-weight="bold" font-style="normal" fill="#333333" opacity="1" x="326.422" text-anchor="start" y="12.5" textLength="64.07756805419922" style="font-family: Arial, Helvetica Neue, Helvetica, sans-serif;">Release 2</tspan></text></g></g><g width="351.333" height="491.5" transform="scale(1,1) translate(189.5,108.333)"><g stroke="#7F7F7F" opacity="1" stroke-width="1" stroke-dasharray="none" width="351.333" height="491.5" transform="scale(1,1) translate(0,0)" fill="url(#38496b55-dcb7-4010-8005-212231cd4098)" stroke-opacity="1" filter="url(#79e8e5ff-05f0-4727-88b3-8914f5b28cc7)"><linearGradient id="38496b55-dcb7-4010-8005-212231cd4098" x1="175.6665" y1="0" x2="175.6665" y2="491.5" gradientUnits="userSpaceOnUse"><stop offset="0%" style="stop-color:#C4D5E6;stop-opacity:1;"/><stop offset="100%" style="stop-color:#B6CDE4;stop-opacity:1;"/></linearGradient><rect width="351.333" height="491.5"/></g><g width="350.3333333333333" height="490.5" transform="scale(1,1) translate(0.5,0.5)"><text width="350.3333333333333" height="15.624999046325684" transform="scale(1,1) translate(0,474.8750009536743)" xml:space="preserve"><tspan xml:space="preserve" text-rendering="optimizeSpeed" font-size="13.88888888888889" font-weight="bold" font-style="normal" fill="#333333" opacity="1" x="286.256" text-anchor="start" y="12.5" textLength="64.07756805419922" style="font-family: Arial, Helvetica Neue, Helvetica, sans-serif;">Release 1</tspan></text></g></g><g width="48.5" height="0" transform="scale(1,1) translate(63.79,339.761)"><g fill="#545454" stroke="#545454" stroke-opacity="1" transform="scale(1,1) translate(0,0)"><path fill="none" stroke-width="1" stroke-dasharray="none" d="M0,0 L0,0 M0,0 L0,0 M48.5,0 L48.5,0 M0,0 L0,0"/><g><g stroke-dasharray="none"><path d="M0,0L-10,0L-10,-10L0,-10z" stroke-width="0" fill="none"/></g></g></g></g><g width="47.5" height="95.167" transform="scale(1,1) translate(63.79,292.261)"><g width="47.5" height="95.167" fill="url(#223c6d2e-b4bc-4613-8c48-4ad3a5676a84)" filter="url(#0965d991-0681-43e5-8be4-265343109ba0)"><linearGradient id="223c6d2e-b4bc-4613-8c48-4ad3a5676a84" x1="23.75" y1="0" x2="23.75" y2="95.167" gradientUnits="userSpaceOnUse"><stop offset="0%" style="stop-color:#92B0CF;stop-opacity:1;"/><stop offset="100%" style="stop-color:#8CA8CD;stop-opacity:1;"/></linearGradient><g transform="scale(0.979664308817572,0.9895979353185028) translate(0,0)"><g><g width="0" height="42.167" transform="scale(1,1) translate(23.333,23.667)"><g transform="scale(1,1) translate(0,0)" fill="#7F7F7F" stroke="#7F7F7F" stroke-opacity="1"><path d="M0,0 L0,42.167" fill="none" stroke-width="1" stroke-dasharray="none"/><g><g stroke-dasharray="none"><path d="M-2,-2L2,-2L2,2L-2,2z" stroke-width="0" fill="none"/></g></g></g></g><g width="23.167" height="23" transform="scale(1,1) translate(11.5,1)"><g width="23.167" height="23" transform="scale(1,1) translate(0,0)" stroke="#7F7F7F" stroke-width="1" stroke-dasharray="none" fill="none" stroke-opacity="1"><ellipse rx="11.5835" ry="11.5" cx="11.5835" cy="11.5"/></g></g><g width="22.333" height="11.833" transform="scale(1,1) translate(1,35.5)"><g transform="scale(1,1) translate(0,0)" fill="#7F7F7F" stroke="#7F7F7F" stroke-opacity="1"><path d="M0,11.833 L22.333,0" fill="none" stroke-width="1" stroke-dasharray="none"/><g><g stroke-dasharray="none"><path d="M-2,9.833L2,9.833L2,13.833L-2,13.833z" stroke-width="0" fill="none"/></g></g></g></g><g width="22.333" height="13.5" transform="scale(1,1) translate(23.153,35.682)"><g transform="scale(1,1) translate(0,0)" fill="#7F7F7F" stroke="#7F7F7F" stroke-opacity="1"><path d="M0,0 L22.333,13.5" fill="none" stroke-width="1" stroke-dasharray="none"/><g><g stroke-dasharray="none"><path d="M-2,-2L2,-2L2,2L-2,2z" stroke-width="0" fill="none"/></g></g></g></g><g width="19.167" height="28.167" transform="scale(1,1) translate(4.167,65)"><g transform="scale(1,1) translate(0,0)" fill="#7F7F7F" stroke="#7F7F7F" stroke-opacity="1"><path d="M0,28.167 L19.167,0" fill="none" stroke-width="1" stroke-dasharray="none"/><g><g stroke-dasharray="none"><path d="M-2,26.167L2,26.167L2,30.167L-2,30.167z" stroke-width="0" fill="none"/></g></g></g></g><g width="16.333" height="26.833" transform="scale(1,1) translate(23.152,65.167)"><g transform="scale(1,1) translate(0,0)" fill="#7F7F7F" stroke="#7F7F7F" stroke-opacity="1"><path d="M0,0 L16.333,26.833" fill="none" stroke-width="1" stroke-dasharray="none"/><g><g stroke-dasharray="none"><path d="M-2,-2L2,-2L2,2L-2,2z" stroke-width="0" fill="none"/></g></g></g></g></g></g></g><g width="94.68917846679688" height="31.249998092651367" transform="scale(1,1) translate(-23.595,95.167)"><text width="94.68917846679688" height="31.249998092651367" transform="scale(1,1) translate(0,0)" xml:space="preserve"><tspan xml:space="preserve" text-rendering="optimizeSpeed" font-size="13.88888888888889" font-weight="normal" font-style="normal" fill="#333333" opacity="1" x="0" text-anchor="start" y="12.5" textLength="94.68917846679688" style="font-family: Arial, Helvetica Neue, Helvetica, sans-serif;">&lt;&lt;REST API&gt;&gt;</tspan><tspan xml:space="preserve" text-rendering="optimizeSpeed" font-size="13.88888888888889" font-weight="normal" font-style="normal" fill="#333333" opacity="1" x="29.595" text-anchor="start" y="28.125" textLength="35.49995040893555" style="font-family: Arial, Helvetica Neue, Helvetica, sans-serif;">Client</tspan></text></g></g><g width="152.236" height="57.97" transform="scale(1,1) translate(269.943,223.106)"><g width="152.236" height="57.97" transform="scale(1,1) translate(0,0)" stroke="#7F7F7F" stroke-width="1" stroke-dasharray="none" fill="#CDC29C" fill-opacity="1" stroke-opacity="1" filter="url(#79e8e5ff-05f0-4727-88b3-8914f5b28cc7)"><ellipse rx="76.118" ry="28.985" cx="76.118" cy="28.985"/></g><g width="102.9398500150287" height="36.28395535266432" transform="scale(1,1) translate(24.648,10.843)"><text width="102.9398500150287" height="31.249998092651367" transform="scale(1,1) translate(0,2.516978630006477)" xml:space="preserve"><tspan xml:space="preserve" text-rendering="optimizeSpeed" font-size="13.88888888888889" font-weight="normal" font-style="normal" fill="#333333" opacity="1" x="9.41" text-anchor="start" y="12.5" textLength="84.11920928955078" style="font-family: Arial, Helvetica Neue, Helvetica, sans-serif;">&lt;ActiveDAO&gt;</tspan><tspan xml:space="preserve" text-rendering="optimizeSpeed" font-size="13.88888888888889" font-weight="normal" font-style="normal" fill="#333333" opacity="1" x="11.329" text-anchor="start" y="28.125" textLength="80.28170013427734" style="font-family: Arial, Helvetica Neue, Helvetica, sans-serif;">updateActive</tspan></text></g></g><g width="322.703" height="25" transform="scale(1,1) translate(137.167,19.167)"><g stroke="#000000" opacity="1" stroke-width="0" stroke-dasharray="none" width="322.703" height="25" transform="scale(1,1) translate(0,0)" fill="none" stroke-opacity="1"><rect width="322.703" height="25"/></g><g width="322.7031555175781" height="24.999998092651367" transform="scale(1,1) translate(0,0)"><text width="322.7031555175781" height="24.999998092651367" transform="scale(1,1) translate(0,0)" xml:space="preserve"><tspan xml:space="preserve" text-rendering="optimizeSpeed" font-size="22.22222222222222" font-weight="bold" font-style="normal" fill="#333333" opacity="1" x="0" text-anchor="start" y="19.792" textLength="322.7031555175781" style="font-family: Arial, Helvetica Neue, Helvetica, sans-serif;">Use Case Diagram: Edit Active</tspan></text></g></g><g width="152.167" height="62.217" transform="scale(1,1) translate(270.877,323.212)"><g width="152.167" height="62.217" transform="scale(1,1) translate(0,0)" stroke="#7F7F7F" stroke-width="1" stroke-dasharray="none" fill="#CDC29C" fill-opacity="1" stroke-opacity="1" filter="url(#79e8e5ff-05f0-4727-88b3-8914f5b28cc7)"><ellipse rx="76.0835" ry="31.1085" cx="76.0835" cy="31.1085"/></g><g width="102.89097521233333" height="39.286755247434755" transform="scale(1,1) translate(24.638,11.465)"><text width="102.89097521233333" height="31.249998092651367" transform="scale(1,1) translate(0,4.018378577391694)" xml:space="preserve"><tspan xml:space="preserve" text-rendering="optimizeSpeed" font-size="13.88888888888889" font-weight="normal" font-style="normal" fill="#333333" opacity="1" x="3.338" text-anchor="start" y="12.5" textLength="92.35684204101562" style="font-family: Arial, Helvetica Neue, Helvetica, sans-serif;">Validate Empty</tspan><tspan xml:space="preserve" text-rendering="optimizeSpeed" font-size="13.88888888888889" font-weight="normal" font-style="normal" fill="#333333" opacity="1" x="32.926" text-anchor="start" y="28.125" textLength="37.03901672363281" style="font-family: Arial, Helvetica Neue, Helvetica, sans-serif;">Fields</tspan></text></g></g><g width="0.9" height="42.137" transform="scale(1,1) translate(346.061,281.076)"><g transform="scale(1,1) translate(0,0)" fill="#545454" stroke="#545454" stroke-opacity="1"><path d="M0,0 L0.9,42.137" fill="none" stroke-width="2" stroke-dasharray="6,2"/><g><g stroke-dasharray="none"><path d="M-2,-2L2,-2L2,2L-2,2z" stroke-width="0" fill="none"/></g></g></g><g stroke-width="0" stroke-dasharray="none" fill="#FFFFFF" opacity="1" width="79.21" height="17.625" transform="scale(1,1) translate(-39.155,12.256)"><rect width="79.21" height="17.625"/></g><g width="77.21037292480469" height="42.13654235398917" transform="scale(1,1) translate(-38.155,13.256)"><text width="77.21037292480469" height="15.624999046325684" transform="scale(1,1) translate(0,0)" xml:space="preserve"><tspan xml:space="preserve" text-rendering="optimizeSpeed" font-size="13.88888888888889" font-weight="normal" font-style="normal" fill="#000000" opacity="1" x="0" text-anchor="start" y="12.5" textLength="77.21037292480469" style="font-family: Arial, Helvetica Neue, Helvetica, sans-serif;">&lt;&lt;Include&gt;&gt;</tspan></text></g></g><g width="152.167" height="59.117" transform="scale(1,1) translate(271.677,528.242)"><g width="152.167" height="59.117" transform="scale(1,1) translate(0,0)" stroke="#7F7F7F" stroke-width="1" stroke-dasharray="none" fill="#CDC29C" fill-opacity="1" stroke-opacity="1" filter="url(#79e8e5ff-05f0-4727-88b3-8914f5b28cc7)"><ellipse rx="76.0835" ry="29.5585" cx="76.0835" cy="29.5585"/></g><g width="102.89097521233333" height="37.09471983139826" transform="scale(1,1) translate(24.638,11.011)"><text width="102.89097521233333" height="15.624999046325684" transform="scale(1,1) translate(0,10.734860392536287)" xml:space="preserve"><tspan xml:space="preserve" text-rendering="optimizeSpeed" font-size="13.88888888888889" font-weight="normal" font-style="normal" fill="#333333" opacity="1" x="6.806" text-anchor="start" y="12.5" textLength="89.27873229980469" style="font-family: Arial, Helvetica Neue, Helvetica, sans-serif;">Validate Dates</tspan></text></g></g><g width="0.51" height="41.205" transform="scale(1,1) translate(346.961,385.429)"><g transform="scale(1,1) translate(0,0)" fill="#545454" stroke="#545454" stroke-opacity="1"><path d="M0,0 L0.51,41.205" fill="none" stroke-width="2" stroke-dasharray="6,2"/><g><g stroke-dasharray="none"><path d="M-2,-2L2,-2L2,2L-2,2z" stroke-width="0" fill="none"/></g></g></g><g stroke-width="0" stroke-dasharray="none" fill="#FFFFFF" opacity="1" width="79.21" height="17.625" transform="scale(1,1) translate(-39.35,11.79)"><rect width="79.21" height="17.625"/></g><g width="77.21037292480469" height="41.205290158151456" transform="scale(1,1) translate(-38.35,12.79)"><text width="77.21037292480469" height="15.624999046325684" transform="scale(1,1) translate(0,0)" xml:space="preserve"><tspan xml:space="preserve" text-rendering="optimizeSpeed" font-size="13.88888888888889" font-weight="normal" font-style="normal" fill="#000000" opacity="1" x="0" text-anchor="start" y="12.5" textLength="77.21037292480469" style="font-family: Arial, Helvetica Neue, Helvetica, sans-serif;">&lt;&lt;Include&gt;&gt;</tspan></text></g></g><g width="47.5" height="95.167" transform="scale(1,1) translate(651.741,300.277)"><g width="47.5" height="95.167" fill="url(#08bc502b-f715-4e97-85e5-49b9a75025ee)" filter="url(#0965d991-0681-43e5-8be4-265343109ba0)"><linearGradient id="08bc502b-f715-4e97-85e5-49b9a75025ee" x1="23.75" y1="0" x2="23.75" y2="95.167" gradientUnits="userSpaceOnUse"><stop offset="0%" style="stop-color:#92B0CF;stop-opacity:1;"/><stop offset="100%" style="stop-color:#8CA8CD;stop-opacity:1;"/></linearGradient><g transform="scale(0.979664308817572,0.9895979353185028) translate(0,0)"><g><g width="0" height="42.167" transform="scale(1,1) translate(23.333,23.667)"><g transform="scale(1,1) translate(0,0)" fill="#7F7F7F" stroke="#7F7F7F" stroke-opacity="1"><path d="M0,0 L0,42.167" fill="none" stroke-width="1" stroke-dasharray="none"/><g><g stroke-dasharray="none"><path d="M-2,-2L2,-2L2,2L-2,2z" stroke-width="0" fill="none"/></g></g></g></g><g width="23.167" height="23" transform="scale(1,1) translate(11.5,1)"><g width="23.167" height="23" transform="scale(1,1) translate(0,0)" stroke="#7F7F7F" stroke-width="1" stroke-dasharray="none" fill="none" stroke-opacity="1"><ellipse rx="11.5835" ry="11.5" cx="11.5835" cy="11.5"/></g></g><g width="22.333" height="11.833" transform="scale(1,1) translate(1,35.5)"><g transform="scale(1,1) translate(0,0)" fill="#7F7F7F" stroke="#7F7F7F" stroke-opacity="1"><path d="M0,11.833 L22.333,0" fill="none" stroke-width="1" stroke-dasharray="none"/><g><g stroke-dasharray="none"><path d="M-2,9.833L2,9.833L2,13.833L-2,13.833z" stroke-width="0" fill="none"/></g></g></g></g><g width="22.333" height="13.5" transform="scale(1,1) translate(23.153,35.682)"><g transform="scale(1,1) translate(0,0)" fill="#7F7F7F" stroke="#7F7F7F" stroke-opacity="1"><path d="M0,0 L22.333,13.5" fill="none" stroke-width="1" stroke-dasharray="none"/><g><g stroke-dasharray="none"><path d="M-2,-2L2,-2L2,2L-2,2z" stroke-width="0" fill="none"/></g></g></g></g><g width="19.167" height="28.167" transform="scale(1,1) translate(4.167,65)"><g transform="scale(1,1) translate(0,0)" fill="#7F7F7F" stroke="#7F7F7F" stroke-opacity="1"><path d="M0,28.167 L19.167,0" fill="none" stroke-width="1" stroke-dasharray="none"/><g><g stroke-dasharray="none"><path d="M-2,26.167L2,26.167L2,30.167L-2,30.167z" stroke-width="0" fill="none"/></g></g></g></g><g width="16.333" height="26.833" transform="scale(1,1) translate(23.152,65.167)"><g transform="scale(1,1) translate(0,0)" fill="#7F7F7F" stroke="#7F7F7F" stroke-opacity="1"><path d="M0,0 L16.333,26.833" fill="none" stroke-width="1" stroke-dasharray="none"/><g><g stroke-dasharray="none"><path d="M-2,-2L2,-2L2,2L-2,2z" stroke-width="0" fill="none"/></g></g></g></g></g></g></g><g width="104.98117065429688" height="31.249998092651367" transform="scale(1,1) translate(-28.741,95.167)"><text width="104.98117065429688" height="31.249998092651367" transform="scale(1,1) translate(0,0)" xml:space="preserve"><tspan xml:space="preserve" text-rendering="optimizeSpeed" font-size="13.88888888888889" font-weight="normal" font-style="normal" fill="#333333" opacity="1" x="0" text-anchor="start" y="12.5" textLength="104.98117065429688" style="font-family: Arial, Helvetica Neue, Helvetica, sans-serif;">&lt;&lt;Persistence&gt;&gt;</tspan><tspan xml:space="preserve" text-rendering="optimizeSpeed" font-size="13.88888888888889" font-weight="normal" font-style="normal" fill="#333333" opacity="1" x="21.618" text-anchor="start" y="28.125" textLength="61.74527359008789" style="font-family: Arial, Helvetica Neue, Helvetica, sans-serif;">MongoDB</tspan></text></g></g><g width="157.984" height="192.534" transform="scale(1,1) translate(111.29,147.31)"><g transform="scale(1,1) translate(0,0)" fill="#545454" stroke="#545454" stroke-opacity="1"><path d="M0,192.534 L157.984,0" fill="none" stroke-width="1" stroke-dasharray="none"/><g><g stroke-dasharray="none"><path d="M-1,191.534L1,191.534L1,193.534L-1,193.534z" stroke-width="0" fill="none"/></g></g></g></g><g width="227.897" height="209.94" transform="scale(1,1) translate(423.844,347.861)"><g transform="scale(1,1) translate(0,0)" fill="#545454" stroke="#545454" stroke-opacity="1"><path d="M0,209.94 L227.897,0" fill="none" stroke-width="1" stroke-dasharray="none"/><g><g stroke-dasharray="none"><path d="M-1,208.94L1,208.94L1,210.94L-1,210.94z" stroke-width="0" fill="none"/></g></g></g></g><g width="153.373" height="68.035" transform="scale(1,1) translate(269.274,113.293)"><g width="153.373" height="68.035" transform="scale(1,1) translate(0,0)" stroke="#7F7F7F" stroke-width="1" stroke-dasharray="none" fill="#CDC29C" fill-opacity="1" stroke-opacity="1" filter="url(#79e8e5ff-05f0-4727-88b3-8914f5b28cc7)"><ellipse rx="76.6865" ry="34.0175" cx="76.6865" cy="34.0175"/></g><g width="103.74407740313168" height="43.401030780955466" transform="scale(1,1) translate(24.815,12.317)"><text width="103.74407740313168" height="31.249998092651367" transform="scale(1,1) translate(0,6.075516344152049)" xml:space="preserve"><tspan xml:space="preserve" text-rendering="optimizeSpeed" font-size="13.88888888888889" font-weight="normal" font-style="normal" fill="#333333" opacity="1" x="26.017" text-anchor="start" y="12.5" textLength="51.71088790893555" style="font-family: Arial, Helvetica Neue, Helvetica, sans-serif;">Rest Api</tspan><tspan xml:space="preserve" text-rendering="optimizeSpeed" font-size="13.88888888888889" font-weight="normal" font-style="normal" fill="#333333" opacity="1" x="0.151" text-anchor="start" y="28.125" textLength="103.44210815429688" style="font-family: Arial, Helvetica Neue, Helvetica, sans-serif;">&lt;/update-active&gt;</tspan></text></g></g><g width="0.1" height="41.778" transform="scale(1,1) translate(345.961,181.328)"><g transform="scale(1,1) translate(0,0)" fill="#000000" stroke="#000000" stroke-opacity="1"><path d="M 0.014 6 L 0.1 41.778" fill="none" stroke-width="2" stroke-dasharray="none"/><g><g stroke-dasharray="none"><path d="M-0.486,6.001A6,6 269.863 1 1 0.514,5.999z" stroke-width="1" fill="none"/></g><g stroke-dasharray="none"><path d="M6.071,29.764L0.1,41.778L-5.929,29.792" stroke-width="1" fill="none"/></g></g></g></g><g width="152.167" height="62.333" transform="scale(1,1) translate(271.388,426.634)"><g width="152.167" height="62.333" transform="scale(1,1) translate(0,0)" stroke="#7F7F7F" stroke-width="1" stroke-dasharray="none" fill="#CDC29C" fill-opacity="1" stroke-opacity="1" filter="url(#79e8e5ff-05f0-4727-88b3-8914f5b28cc7)"><ellipse rx="76.0835" ry="31.1665" cx="76.0835" cy="31.1665"/></g><g width="102.89097521233333" height="39.36921596266666" transform="scale(1,1) translate(24.638,11.482)"><text width="102.89097521233333" height="31.249998092651367" transform="scale(1,1) translate(0,4.059608935007645)" xml:space="preserve"><tspan xml:space="preserve" text-rendering="optimizeSpeed" font-size="13.88888888888889" font-weight="normal" font-style="normal" fill="#333333" opacity="1" x="24.943" text-anchor="start" y="12.5" textLength="49.148033142089844" style="font-family: Arial, Helvetica Neue, Helvetica, sans-serif;">Validate</tspan><tspan xml:space="preserve" text-rendering="optimizeSpeed" font-size="13.88888888888889" font-weight="normal" font-style="normal" fill="#333333" opacity="1" x="21.346" text-anchor="start" y="28.125" textLength="60.199432373046875" style="font-family: Arial, Helvetica Neue, Helvetica, sans-serif;">Existence</tspan></text></g></g><g width="0.29" height="39.275" transform="scale(1,1) translate(347.471,488.968)"><g transform="scale(1,1) translate(0,0)" fill="#545454" stroke="#545454" stroke-opacity="1"><path d="M0,0 L0.29,39.275" fill="none" stroke-width="2" stroke-dasharray="6,2"/><g><g stroke-dasharray="none"><path d="M-2,-2L2,-2L2,2L-2,2z" stroke-width="0" fill="none"/></g></g></g><g stroke-width="0" stroke-dasharray="none" fill="#FFFFFF" opacity="1" width="79.21" height="17.625" transform="scale(1,1) translate(-39.46,10.825)"><rect width="79.21" height="17.625"/></g><g width="77.21037292480469" height="39.27491630289495" transform="scale(1,1) translate(-38.46,11.825)"><text width="77.21037292480469" height="15.624999046325684" transform="scale(1,1) translate(0,0)" xml:space="preserve"><tspan xml:space="preserve" text-rendering="optimizeSpeed" font-size="13.88888888888889" font-weight="normal" font-style="normal" fill="#000000" opacity="1" x="0" text-anchor="start" y="12.5" textLength="77.21037292480469" style="font-family: Arial, Helvetica Neue, Helvetica, sans-serif;">&lt;&lt;Include&gt;&gt;</tspan></text></g></g></g></svg>