<?xml version="1.0" standalone="no"?><!DOCTYPE svg PUBLIC "-//W3C//DTD SVG 1.1//EN" "http://www.w3.org/Graphics/SVG/1.1/DTD/svg11.dtd"><svg xmlns="http://www.w3.org/2000/svg" version="1.1" width="712.413" height="714.833" xmlns:xlink="http://www.w3.org/1999/xlink" xlink="http://www.w3.org/1999/xlink" style="position:relative;overflow:hidden;" viewBox="21.29 7.167 712.413 714.833"><defs><filter id="5ee23944-b691-437b-83b4-b2210df0a886" x="-0.5" y="-0.25" width="2" height="1.5"><feFlood flood-color="#000" flood-opacity="0.6" result="flood"/><feComposite in="flood" in2="SourceAlpha" operator="in" result="mask"/><feGaussianBlur in="mask" stdDeviation="2"/><feOffset dx="1.25" dy="1.25" result="oEffect0"/><feMerge><feMergeNode in="oEffect0"/><feMergeNode in="SourceGraphic"/></feMerge></filter><filter id="bc16173d-fc19-42f2-84db-7a4e9a0bc030" x="-0.5" y="-0.5" width="2" height="2"><feFlood flood-color="#000" flood-opacity="0.6" result="flood"/><feComposite in="flood" in2="SourceAlpha" operator="in" result="mask"/><feGaussianBlur in="mask" stdDeviation="2"/><feOffset dx="1.25" dy="1.25" result="oEffect0"/><feMerge><feMergeNode in="oEffect0"/><feMergeNode in="SourceGraphic"/></feMerge></filter><filter id="1357f2c1-6399-4a06-872d-dd6ffafb7de5" x="-0.5" y="-0.5" width="2" height="2"><feFlood flood-color="#000" flood-opacity="0.6" result="flood"/><feComposite in="flood" in2="SourceAlpha" operator="in" result="mask"/><feGaussianBlur in="mask" stdDeviation="2"/><feOffset dx="1.2125000000000001" dy="1.2125000000000001" result="oEffect0"/><feMerge><feMergeNode in="oEffect0"/><feMergeNode in="SourceGraphic"/></feMerge></filter></defs><g><g width="391.5" height="624.833" transform="scale(1,1) translate(172.5,91.667)"><g stroke="#7F7F7F" opacity="1" stroke-width="1" stroke-dasharray="none" width="391.5" height="624.833" transform="scale(1,1) translate(0,0)" fill="url(#38ad2871-4de8-44a0-84d2-7321a3b1ba28)" stroke-opacity="1" filter="url(#5ee23944-b691-437b-83b4-b2210df0a886)"><linearGradient id="38ad2871-4de8-44a0-84d2-7321a3b1ba28" x1="195.75" y1="0" x2="195.75" y2="624.833" gradientUnits="userSpaceOnUse"><stop offset="0%" style="stop-color:#C4D5E6;stop-opacity:1;"/><stop offset="100%" style="stop-color:#B6CDE4;stop-opacity:1;"/></linearGradient><rect width="391.5" height="624.833"/></g><g width="390.5" height="623.8333333333333" transform="scale(1,1) translate(0.5,0.5)"><text width="390.5" height="15.624999046325684" transform="scale(1,1) translate(0,608.2083342870076)" xml:space="preserve"><tspan xml:space="preserve" text-rendering="optimizeSpeed" font-size="13.88888888888889" font-weight="bold" font-style="normal" fill="#333333" opacity="1" x="326.422" text-anchor="start" y="12.5" textLength="64.07756805419922" style="font-family: Arial, Helvetica Neue, Helvetica, sans-serif;">Release 2</tspan></text></g></g><g width="351.333" height="491.5" transform="scale(1,1) translate(189.5,108.333)"><g stroke="#7F7F7F" opacity="1" stroke-width="1" stroke-dasharray="none" width="351.333" height="491.5" transform="scale(1,1) translate(0,0)" fill="url(#9ca6a3ab-9db3-4e35-824b-f4a5ead582cb)" stroke-opacity="1" filter="url(#bc16173d-fc19-42f2-84db-7a4e9a0bc030)"><linearGradient id="9ca6a3ab-9db3-4e35-824b-f4a5ead582cb" x1="175.6665" y1="0" x2="175.6665" y2="491.5" gradientUnits="userSpaceOnUse"><stop offset="0%" style="stop-color:#C4D5E6;stop-opacity:1;"/><stop offset="100%" style="stop-color:#B6CDE4;stop-opacity:1;"/></linearGradient><rect width="351.333" height="491.5"/></g><g width="350.3333333333333" height="490.5" transform="scale(1,1) translate(0.5,0.5)"><text width="350.3333333333333" height="15.624999046325684" transform="scale(1,1) translate(0,474.8750009536743)" xml:space="preserve"><tspan xml:space="preserve" text-rendering="optimizeSpeed" font-size="13.88888888888889" font-weight="bold" font-style="normal" fill="#333333" opacity="1" x="286.256" text-anchor="start" y="12.5" textLength="64.07756805419922" style="font-family: Arial, Helvetica Neue, Helvetica, sans-serif;">Release 1</tspan></text></g></g><g width="48.5" height="0" transform="scale(1,1) translate(63.79,339.761)"><g fill="#545454" stroke="#545454" stroke-opacity="1" transform="scale(1,1) translate(0,0)"><path fill="none" stroke-width="1" stroke-dasharray="none" d="M0,0 L0,0 M0,0 L0,0 M48.5,0 L48.5,0 M0,0 L0,0"/><g><g stroke-dasharray="none"><path d="M0,0L-10,0L-10,-10L0,-10z" stroke-width="0" fill="none"/></g></g></g></g><g width="47.5" height="95.167" transform="scale(1,1) translate(63.79,292.261)"><g width="47.5" height="95.167" fill="url(#7b3bc1d2-ed6c-4fe2-8fff-be7d8899d3b1)" filter="url(#1357f2c1-6399-4a06-872d-dd6ffafb7de5)"><linearGradient id="7b3bc1d2-ed6c-4fe2-8fff-be7d8899d3b1" x1="23.75" y1="0" x2="23.75" y2="95.167" gradientUnits="userSpaceOnUse"><stop offset="0%" style="stop-color:#92B0CF;stop-opacity:1;"/><stop offset="100%" style="stop-color:#8CA8CD;stop-opacity:1;"/></linearGradient><g transform="scale(0.979664308817572,0.9895979353185028) translate(0,0)"><g><g width="0" height="42.167" transform="scale(1,1) translate(23.333,23.667)"><g transform="scale(1,1) translate(0,0)" fill="#7F7F7F" stroke="#7F7F7F" stroke-opacity="1"><path d="M0,0 L0,42.167" fill="none" stroke-width="1" stroke-dasharray="none"/><g><g stroke-dasharray="none"><path d="M-2,-2L2,-2L2,2L-2,2z" stroke-width="0" fill="none"/></g></g></g></g><g width="23.167" height="23" transform="scale(1,1) translate(11.5,1)"><g width="23.167" height="23" transform="scale(1,1) translate(0,0)" stroke="#7F7F7F" stroke-width="1" stroke-dasharray="none" fill="none" stroke-opacity="1"><ellipse rx="11.5835" ry="11.5" cx="11.5835" cy="11.5"/></g></g><g width="22.333" height="11.833" transform="scale(1,1) translate(1,35.5)"><g transform="scale(1,1) translate(0,0)" fill="#7F7F7F" stroke="#7F7F7F" stroke-opacity="1"><path d="M0,11.833 L22.333,0" fill="none" stroke-width="1" stroke-dasharray="none"/><g><g stroke-dasharray="none"><path d="M-2,9.833L2,9.833L2,13.833L-2,13.833z" stroke-width="0" fill="none"/></g></g></g></g><g width="22.333" height="13.5" transform="scale(1,1) translate(23.153,35.682)"><g transform="scale(1,1) translate(0,0)" fill="#7F7F7F" stroke="#7F7F7F" stroke-opacity="1"><path d="M0,0 L22.333,13.5" fill="none" stroke-width="1" stroke-dasharray="none"/><g><g stroke-dasharray="none"><path d="M-2,-2L2,-2L2,2L-2,2z" stroke-width="0" fill="none"/></g></g></g></g><g width="19.167" height="28.167" transform="scale(1,1) translate(4.167,65)"><g transform="scale(1,1) translate(0,0)" fill="#7F7F7F" stroke="#7F7F7F" stroke-opacity="1"><path d="M0,28.167 L19.167,0" fill="none" stroke-width="1" stroke-dasharray="none"/><g><g stroke-dasharray="none"><path d="M-2,26.167L2,26.167L2,30.167L-2,30.167z" stroke-width="0" fill="none"/></g></g></g></g><g width="16.333" height="26.833" transform="scale(1,1) translate(23.152,65.167)"><g transform="scale(1,1) translate(0,0)" fill="#7F7F7F" stroke="#7F7F7F" stroke-opacity="1"><path d="M0,0 L16.333,26.833" fill="none" stroke-width="1" stroke-dasharray="none"/><g><g stroke-dasharray="none"><path d="M-2,-2L2,-2L2,2L-2,2z" stroke-width="0" fill="none"/></g></g></g></g></g></g></g><g width="94.68917846679688" height="31.249998092651367" transform="scale(1,1) translate(-23.595,95.167)"><text width="94.68917846679688" height="31.249998092651367" transform="scale(1,1) translate(0,0)" xml:space="preserve"><tspan xml:space="preserve" text-rendering="optimizeSpeed" font-size="13.88888888888889" font-weight="normal" font-style="normal" fill="#333333" opacity="1" x="0" text-anchor="start" y="12.5" textLength="94.68917846679688" style="font-family: Arial, Helvetica Neue, Helvetica, sans-serif;">&lt;&lt;REST API&gt;&gt;</tspan><tspan xml:space="preserve" text-rendering="optimizeSpeed" font-size="13.88888888888889" font-weight="normal" font-style="normal" fill="#333333" opacity="1" x="29.595" text-anchor="start" y="28.125" textLength="35.49995040893555" style="font-family: Arial, Helvetica Neue, Helvetica, sans-serif;">Client</tspan></text></g></g><g width="162.069" height="61.715" transform="scale(1,1) translate(265.026,272.233)"><g width="162.069" height="61.715" transform="scale(1,1) translate(0,0)" stroke="#7F7F7F" stroke-width="1" stroke-dasharray="none" fill="#CDC29C" fill-opacity="1" stroke-opacity="1" filter="url(#bc16173d-fc19-42f2-84db-7a4e9a0bc030)"><ellipse rx="81.0345" ry="30.8575" cx="81.0345" cy="30.8575"/></g><g width="109.89315494441357" height="38.9317157992425" transform="scale(1,1) translate(26.088,11.391)"><text width="109.89315494441357" height="31.249998092651367" transform="scale(1,1) translate(0,3.8408588532955648)" xml:space="preserve"><tspan xml:space="preserve" text-rendering="optimizeSpeed" font-size="13.88888888888889" font-weight="normal" font-style="normal" fill="#333333" opacity="1" x="0.524" text-anchor="start" y="12.5" textLength="108.84577178955078" style="font-family: Arial, Helvetica Neue, Helvetica, sans-serif;">&lt;ActiveBounday&gt;</tspan><tspan xml:space="preserve" text-rendering="optimizeSpeed" font-size="13.88888888888889" font-weight="normal" font-style="normal" fill="#333333" opacity="1" x="34.122" text-anchor="start" y="28.125" textLength="41.64936065673828" style="font-family: Arial, Helvetica Neue, Helvetica, sans-serif;">listAll()</tspan></text></g></g><g width="332.597" height="25" transform="scale(1,1) translate(137.167,19.167)"><g stroke="#000000" opacity="1" stroke-width="0" stroke-dasharray="none" width="332.597" height="25" transform="scale(1,1) translate(0,0)" fill="none" stroke-opacity="1"><rect width="332.597" height="25"/></g><g width="332.59747314453125" height="24.999998092651367" transform="scale(1,1) translate(0,0)"><text width="332.59747314453125" height="24.999998092651367" transform="scale(1,1) translate(0,0)" xml:space="preserve"><tspan xml:space="preserve" text-rendering="optimizeSpeed" font-size="22.22222222222222" font-weight="bold" font-style="normal" fill="#333333" opacity="1" x="0" text-anchor="start" y="19.792" textLength="332.59747314453125" style="font-family: Arial, Helvetica Neue, Helvetica, sans-serif;">Use Case Diagram: List Actives</tspan></text></g></g><g width="152.167" height="62.217" transform="scale(1,1) translate(270.877,433.212)"><g width="152.167" height="62.217" transform="scale(1,1) translate(0,0)" stroke="#7F7F7F" stroke-width="1" stroke-dasharray="none" fill="#CDC29C" fill-opacity="1" stroke-opacity="1" filter="url(#bc16173d-fc19-42f2-84db-7a4e9a0bc030)"><ellipse rx="76.0835" ry="31.1085" cx="76.0835" cy="31.1085"/></g><g width="102.89097521233333" height="39.286755247434755" transform="scale(1,1) translate(24.638,11.465)"><text width="102.89097521233333" height="31.249998092651367" transform="scale(1,1) translate(0,4.018378577391694)" xml:space="preserve"><tspan xml:space="preserve" text-rendering="optimizeSpeed" font-size="13.88888888888889" font-weight="normal" font-style="normal" fill="#333333" opacity="1" x="11.694" text-anchor="start" y="12.5" textLength="79.50202941894531" style="font-family: Arial, Helvetica Neue, Helvetica, sans-serif;">&lt;ActiveDao&gt;</tspan><tspan xml:space="preserve" text-rendering="optimizeSpeed" font-size="13.88888888888889" font-weight="normal" font-style="normal" fill="#333333" opacity="1" x="27.912" text-anchor="start" y="28.125" textLength="47.066558837890625" style="font-family: Arial, Helvetica Neue, Helvetica, sans-serif;">findAll()</tspan></text></g></g><g width="47.5" height="95.167" transform="scale(1,1) translate(651.741,300.277)"><g width="47.5" height="95.167" fill="url(#2684b840-4b3f-4b20-8493-0d1451a5599e)" filter="url(#1357f2c1-6399-4a06-872d-dd6ffafb7de5)"><linearGradient id="2684b840-4b3f-4b20-8493-0d1451a5599e" x1="23.75" y1="0" x2="23.75" y2="95.167" gradientUnits="userSpaceOnUse"><stop offset="0%" style="stop-color:#92B0CF;stop-opacity:1;"/><stop offset="100%" style="stop-color:#8CA8CD;stop-opacity:1;"/></linearGradient><g transform="scale(0.979664308817572,0.9895979353185028) translate(0,0)"><g><g width="0" height="42.167" transform="scale(1,1) translate(23.333,23.667)"><g transform="scale(1,1) translate(0,0)" fill="#7F7F7F" stroke="#7F7F7F" stroke-opacity="1"><path d="M0,0 L0,42.167" fill="none" stroke-width="1" stroke-dasharray="none"/><g><g stroke-dasharray="none"><path d="M-2,-2L2,-2L2,2L-2,2z" stroke-width="0" fill="none"/></g></g></g></g><g width="23.167" height="23" transform="scale(1,1) translate(11.5,1)"><g width="23.167" height="23" transform="scale(1,1) translate(0,0)" stroke="#7F7F7F" stroke-width="1" stroke-dasharray="none" fill="none" stroke-opacity="1"><ellipse rx="11.5835" ry="11.5" cx="11.5835" cy="11.5"/></g></g><g width="22.333" height="11.833" transform="scale(1,1) translate(1,35.5)"><g transform="scale(1,1) translate(0,0)" fill="#7F7F7F" stroke="#7F7F7F" stroke-opacity="1"><path d="M0,11.833 L22.333,0" fill="none" stroke-width="1" stroke-dasharray="none"/><g><g stroke-dasharray="none"><path d="M-2,9.833L2,9.833L2,13.833L-2,13.833z" stroke-width="0" fill="none"/></g></g></g></g><g width="22.333" height="13.5" transform="scale(1,1) translate(23.153,35.682)"><g transform="scale(1,1) translate(0,0)" fill="#7F7F7F" stroke="#7F7F7F" stroke-opacity="1"><path d="M0,0 L22.333,13.5" fill="none" stroke-width="1" stroke-dasharray="none"/><g><g stroke-dasharray="none"><path d="M-2,-2L2,-2L2,2L-2,2z" stroke-width="0" fill="none"/></g></g></g></g><g width="19.167" height="28.167" transform="scale(1,1) translate(4.167,65)"><g transform="scale(1,1) translate(0,0)" fill="#7F7F7F" stroke="#7F7F7F" stroke-opacity="1"><path d="M0,28.167 L19.167,0" fill="none" stroke-width="1" stroke-dasharray="none"/><g><g stroke-dasharray="none"><path d="M-2,26.167L2,26.167L2,30.167L-2,30.167z" stroke-width="0" fill="none"/></g></g></g></g><g width="16.333" height="26.833" transform="scale(1,1) translate(23.152,65.167)"><g transform="scale(1,1) translate(0,0)" fill="#7F7F7F" stroke="#7F7F7F" stroke-opacity="1"><path d="M0,0 L16.333,26.833" fill="none" stroke-width="1" stroke-dasharray="none"/><g><g stroke-dasharray="none"><path d="M-2,-2L2,-2L2,2L-2,2z" stroke-width="0" fill="none"/></g></g></g></g></g></g></g><g width="104.98117065429688" height="31.249998092651367" transform="scale(1,1) translate(-28.741,95.167)"><text width="104.98117065429688" height="31.249998092651367" transform="scale(1,1) translate(0,0)" xml:space="preserve"><tspan xml:space="preserve" text-rendering="optimizeSpeed" font-size="13.88888888888889" font-weight="normal" font-style="normal" fill="#333333" opacity="1" x="0" text-anchor="start" y="12.5" textLength="104.98117065429688" style="font-family: Arial, Helvetica Neue, Helvetica, sans-serif;">&lt;&lt;Persistence&gt;&gt;</tspan><tspan xml:space="preserve" text-rendering="optimizeSpeed" font-size="13.88888888888889" font-weight="normal" font-style="normal" fill="#333333" opacity="1" x="21.618" text-anchor="start" y="28.125" textLength="61.74527359008789" style="font-family: Arial, Helvetica Neue, Helvetica, sans-serif;">MongoDB</tspan></text></g></g><g width="157.984" height="174.534" transform="scale(1,1) translate(111.29,165.31)"><g transform="scale(1,1) translate(0,0)" fill="#545454" stroke="#545454" stroke-opacity="1"><path d="M0,174.534 L157.984,0" fill="none" stroke-width="1" stroke-dasharray="none"/><g><g stroke-dasharray="none"><path d="M-1,173.534L1,173.534L1,175.534L-1,175.534z" stroke-width="0" fill="none"/></g></g></g></g><g width="153.373" height="68.035" transform="scale(1,1) translate(269.274,131.293)"><g width="153.373" height="68.035" transform="scale(1,1) translate(0,0)" stroke="#7F7F7F" stroke-width="1" stroke-dasharray="none" fill="#CDC29C" fill-opacity="1" stroke-opacity="1" filter="url(#bc16173d-fc19-42f2-84db-7a4e9a0bc030)"><ellipse rx="76.6865" ry="34.0175" cx="76.6865" cy="34.0175"/></g><g width="103.74407740313168" height="43.401030780955466" transform="scale(1,1) translate(24.815,12.317)"><text width="103.74407740313168" height="31.249998092651367" transform="scale(1,1) translate(0,6.075516344152049)" xml:space="preserve"><tspan xml:space="preserve" text-rendering="optimizeSpeed" font-size="13.88888888888889" font-weight="normal" font-style="normal" fill="#333333" opacity="1" x="26.017" text-anchor="start" y="12.5" textLength="51.71088790893555" style="font-family: Arial, Helvetica Neue, Helvetica, sans-serif;">Rest Api</tspan><tspan xml:space="preserve" text-rendering="optimizeSpeed" font-size="13.88888888888889" font-weight="normal" font-style="normal" fill="#333333" opacity="1" x="9.429" text-anchor="start" y="28.125" textLength="84.88529205322266" style="font-family: Arial, Helvetica Neue, Helvetica, sans-serif;">&lt;/list-actives&gt;</tspan></text></g></g><g width="0.1" height="72.905" transform="scale(1,1) translate(345.961,199.328)"><g transform="scale(1,1) translate(0,0)" fill="#000000" stroke="#000000" stroke-opacity="1"><path d="M 0.008 6 L 0.1 72.905" fill="none" stroke-width="2" stroke-dasharray="none"/><g><g stroke-dasharray="none"><path d="M-0.492,6.001A6,6 269.921 1 1 0.508,5.999z" stroke-width="1" fill="none"/></g><g stroke-dasharray="none"><path d="M6.084,60.897L0.1,72.905L-5.916,60.913" stroke-width="1" fill="none"/></g></g></g></g><g width="0.9" height="99.264" transform="scale(1,1) translate(346.061,333.948)"><g transform="scale(1,1) translate(0,0)" fill="#000000" stroke="#000000" stroke-opacity="1"><path d="M 0.054 6 L 0.9 99.264" fill="none" stroke-width="2" stroke-dasharray="none"/><g><g stroke-dasharray="none"><path d="M-0.446,6.004A6,6 269.481 1 1 0.554,5.995z" stroke-width="1" fill="none"/></g><g stroke-dasharray="none"><path d="M6.791,87.21L0.9,99.264L-5.209,87.319" stroke-width="1" fill="none"/></g></g></g></g><g width="228.697" height="116.46" transform="scale(1,1) translate(423.044,347.861)"><g transform="scale(1,1) translate(0,0)" fill="#000000" stroke="#000000" stroke-opacity="1"><path d="M 5.347 113.737 L 228.697 0" fill="none" stroke-width="2" stroke-dasharray="none"/><g><g stroke-dasharray="none"><path d="M5.574,114.183A6,6 153.013 1 1 5.12,113.292z" stroke-width="1" fill="none"/></g><g stroke-dasharray="none"><path d="M215.281,0.099L228.697,0L220.726,10.792" stroke-width="1" fill="none"/></g></g></g></g><g width="236.73" height="126.339" transform="scale(1,1) translate(415.012,324.069)"><g transform="scale(1,1) translate(0,0)" fill="#000000" stroke="#000000" stroke-opacity="1"><path d="M 231.437 2.825 L 0 126.339" fill="none" stroke-width="2" stroke-dasharray="none"/><g><g stroke-dasharray="none"><path d="M231.201,2.384A6,6 331.912 1 1 231.672,3.266z" stroke-width="1" fill="none"/></g><g stroke-dasharray="none"><path d="M13.412,125.982L0,126.339L7.762,115.396" stroke-width="1" fill="none"/></g></g></g></g></g></svg>